<svg xml:space="preserve" style="max-height: 500px" viewBox="9.09375 9.1 82.25 81.75" y="0px" x="0px" version="1.1" xmlns:xlink="http://www.w3.org/1999/xlink" xmlns="http://www.w3.org/2000/svg" width="82.25" height="81.75">
  <path d="M10.0126953,56.3330078c0.0712891,0.4511719,0.4394531,0.796875,0.8945312,0.8398438L24.1279297,58.40625  l-9.9707031,8.7695312c-0.34375,0.3017578-0.4384766,0.7978516-0.2304688,1.2050781  c0.2060547,0.40625,0.6621094,0.6220703,1.1103516,0.5214844l12.9541016-2.9121094L21.21875,77.4111328  c-0.2324219,0.3925781-0.1699219,0.8935547,0.1533203,1.2167969c0.3222656,0.3232422,0.8251953,0.3857422,1.2167969,0.1533203  l11.4208984-6.7724609l-2.9121094,12.9541016c-0.1005859,0.4462891,0.1142578,0.9033203,0.5214844,1.1103516  c0.4072266,0.2089844,0.9013672,0.1132812,1.2050781-0.2304688l8.7695312-9.9707031l1.2333984,13.2207031  c0.0429688,0.4550781,0.3886719,0.8232422,0.8398438,0.8945312c0.4570312,0.078125,0.8945312-0.171875,1.0742188-0.5908203  L50,77.2041016l5.2587891,12.1923828C55.4179688,89.7666016,55.7822266,90,56.1767578,90  c0.0517578,0,0.1035156-0.0039062,0.15625-0.0126953c0.4511719-0.0712891,0.796875-0.4394531,0.8398438-0.8945312  L58.40625,75.8720703l8.7695312,9.9707031c0.3027344,0.34375,0.796875,0.4384766,1.2050781,0.2304688  c0.4072266-0.2070312,0.6220703-0.6640625,0.5214844-1.1103516l-2.9121094-12.9541016L77.4111328,78.78125  c0.390625,0.2304688,0.8925781,0.1689453,1.2167969-0.1533203c0.3232422-0.3232422,0.3857422-0.8242188,0.1533203-1.2167969  l-6.7724609-11.4208984l12.9541016,2.9121094c0.4492188,0.1005859,0.9042969-0.1152344,1.1103516-0.5214844  c0.2080078-0.4072266,0.1132812-0.9033203-0.2304688-1.2050781L75.8720703,58.40625l13.2207031-1.2333984  c0.4550781-0.0429688,0.8232422-0.3886719,0.8945312-0.8398438c0.0722656-0.4511719-0.171875-0.8935547-0.5908203-1.0742188  L77.2041016,50l12.1923828-5.2587891c0.4189453-0.1806641,0.6630859-0.6230469,0.5908203-1.0742188  c-0.0712891-0.4511719-0.4394531-0.796875-0.8945312-0.8398438L75.8720703,41.59375l9.9707031-8.7695312  c0.34375-0.3017578,0.4384766-0.7978516,0.2304688-1.2050781c-0.2060547-0.40625-0.6611328-0.6220703-1.1103516-0.5214844  l-12.9541016,2.9121094L78.78125,22.5888672c0.2324219-0.3925781,0.1699219-0.8935547-0.1533203-1.2167969  c-0.3222656-0.3212891-0.8232422-0.3857422-1.2167969-0.1533203l-11.4208984,6.7724609l2.9121094-12.9541016  c0.1005859-0.4462891-0.1142578-0.9033203-0.5214844-1.1103516c-0.4082031-0.2089844-0.9023438-0.1132812-1.2050781,0.2304688  L58.40625,24.1279297l-1.2333984-13.2207031c-0.0429688-0.4550781-0.3886719-0.8232422-0.8398438-0.8945312  c-0.453125-0.0732422-0.8945312,0.171875-1.0742188,0.5908203L50,22.7958984l-5.2587891-12.1923828  c-0.1796875-0.4189453-0.6171875-0.6640625-1.0742188-0.5908203c-0.4511719,0.0712891-0.796875,0.4394531-0.8398438,0.8945312  L41.59375,24.1279297l-8.7695312-9.9707031c-0.3037109-0.3447266-0.7988281-0.4404297-1.2050781-0.2304688  c-0.4072266,0.2070312-0.6220703,0.6640625-0.5214844,1.1103516l2.9121094,12.9541016L22.5888672,21.21875  c-0.3916016-0.2324219-0.8935547-0.1699219-1.2167969,0.1533203s-0.3857422,0.8242188-0.1533203,1.2167969l6.7724609,11.4208984  l-12.9541016-2.9121094c-0.4482422-0.1005859-0.9042969,0.1152344-1.1103516,0.5214844  c-0.2080078,0.4072266-0.1132812,0.9033203,0.2304688,1.2050781l9.9707031,8.7695312l-13.2207031,1.2333984  c-0.4550781,0.0429688-0.8232422,0.3886719-0.8945312,0.8398438c-0.0722656,0.4511719,0.171875,0.8935547,0.5908203,1.0742188  L22.7958984,50l-12.1923828,5.2587891C10.1845703,55.4394531,9.9404297,55.8818359,10.0126953,56.3330078z M25.7177734,50.9179688  C26.0839844,50.7597656,26.3212891,50.3994141,26.3212891,50s-0.2373047-0.7597656-0.6035156-0.9179688l-10.7275391-4.6269531  l11.6318359-1.0849609c0.3974609-0.0371094,0.7353516-0.3076172,0.8583984-0.6875  c0.1230469-0.3789062,0.0087891-0.7958984-0.2910156-1.0595703l-8.7724609-7.7158203l11.3974609,2.5625  c0.3876953,0.0878906,0.7939453-0.0634766,1.0283203-0.3876953c0.2353516-0.3232422,0.2548828-0.7548828,0.0517578-1.0976562  l-5.9589844-10.0488281l10.0488281,5.9589844c0.3417969,0.2041016,0.7744141,0.1835938,1.0976562-0.0517578  c0.3232422-0.234375,0.4755859-0.6386719,0.3876953-1.0283203l-2.5625-11.3974609l7.7158203,8.7724609  c0.2636719,0.2998047,0.6796875,0.4130859,1.0595703,0.2910156c0.3798828-0.1230469,0.6503906-0.4609375,0.6875-0.8583984  l1.0849609-11.6318359l4.6269531,10.7275391C49.2402344,26.0839844,49.6005859,26.3212891,50,26.3212891  s0.7597656-0.2373047,0.9179688-0.6035156l4.6269531-10.7275391l1.0849609,11.6318359  c0.0371094,0.3974609,0.3076172,0.7353516,0.6875,0.8583984c0.3779297,0.1230469,0.7958984,0.0087891,1.0595703-0.2910156  l7.7158203-8.7724609l-2.5625,11.3974609c-0.0878906,0.3896484,0.0644531,0.7939453,0.3876953,1.0283203  c0.3242188,0.2353516,0.7558594,0.2558594,1.0976562,0.0517578l10.0488281-5.9589844L69.1054688,34.984375  c-0.203125,0.3427734-0.1835938,0.7744141,0.0517578,1.0976562c0.234375,0.3222656,0.6357422,0.4765625,1.0283203,0.3876953  l11.3974609-2.5625l-8.7724609,7.7158203c-0.2998047,0.2636719-0.4140625,0.6806641-0.2910156,1.0595703  c0.1230469,0.3798828,0.4609375,0.6503906,0.8583984,0.6875l11.6318359,1.0849609l-10.7275391,4.6269531  C73.9160156,49.2402344,73.6787109,49.6005859,73.6787109,50s0.2373047,0.7597656,0.6035156,0.9179688l10.7275391,4.6269531  l-11.6318359,1.0849609c-0.3974609,0.0371094-0.7353516,0.3076172-0.8583984,0.6875  c-0.1230469,0.3789062-0.0087891,0.7958984,0.2910156,1.0595703l8.7724609,7.7158203l-11.3974609-2.5625  c-0.3876953-0.0869141-0.7939453,0.0644531-1.0283203,0.3876953c-0.2353516,0.3232422-0.2548828,0.7548828-0.0517578,1.0976562  l5.9589844,10.0488281L65.015625,69.1054688c-0.3417969-0.2041016-0.7744141-0.1835938-1.0976562,0.0517578  c-0.3232422,0.234375-0.4755859,0.6386719-0.3876953,1.0283203l2.5625,11.3974609l-7.7158203-8.7724609  c-0.2646484-0.3007812-0.6826172-0.4160156-1.0595703-0.2910156c-0.3798828,0.1230469-0.6503906,0.4609375-0.6875,0.8583984  l-1.0849609,11.6318359l-4.6269531-10.7275391C50.7597656,73.9160156,50.3994141,73.6787109,50,73.6787109  s-0.7597656,0.2373047-0.9179688,0.6035156l-4.6269531,10.7275391l-1.0849609-11.6318359  c-0.0371094-0.3974609-0.3076172-0.7353516-0.6875-0.8583984c-0.3789062-0.1240234-0.7949219-0.0087891-1.0595703,0.2910156  l-7.7158203,8.7724609l2.5625-11.3974609c0.0878906-0.3896484-0.0644531-0.7939453-0.3876953-1.0283203  s-0.7548828-0.2558594-1.0976562-0.0517578l-10.0488281,5.9589844l5.9589844-10.0488281  c0.203125-0.3427734,0.1835938-0.7744141-0.0517578-1.0976562c-0.234375-0.3232422-0.6367188-0.4775391-1.0283203-0.3876953  l-11.3974609,2.5625l8.7724609-7.7158203c0.2998047-0.2636719,0.4140625-0.6806641,0.2910156-1.0595703  c-0.1230469-0.3798828-0.4609375-0.6503906-0.8583984-0.6875l-11.6318359-1.0849609L25.7177734,50.9179688z"
        fill="#f8e100"
        stroke="#263d81"
        stroke-width="1"
  />

</svg>