<svg xmlns="http://www.w3.org/2000/svg" xmlns:xlink="http://www.w3.org/1999/xlink" version="1.1" id="Layer_1" x="0px" y="0px" style="enable-background:new 0 0 936 576;" xml:space="preserve" viewBox="24.12 171.55 887.75 232.86">
<style type="text/css">
	.st0{fill:#263d81;}
	.st1{fill:#263d81;}
</style>
<g id="_x34_0Hha8.tif">
	<g>
		<path class="st0" d="M903.38,171.59c1.66,0.96,3.46,0.33,5.19,0.43c2.39,0.14,3.67,1.82,3.21,4.1c-1.49,7.38-2.82,14.8-4.35,22.17    c-0.53,2.56-0.8,5.18-1.74,7.66c-0.77,2.02-2.08,3.26-4.26,3.2c-9.42-0.25-18.81,0.72-28.23,0.5c-5.74-0.14-11.49-0.05-17.23-0.02    c-5.1,0.03-10.19,0.67-15.31,0.48c-1.91-0.07-3.98,2.11-4.39,4.28c-2.06,10.83-4.46,21.59-6.76,32.38    c-3.02,14.15-5.72,28.36-8.69,42.51c-2.76,13.14-5.78,26.23-8.55,39.36c-2.38,11.29-4.58,22.63-6.84,33.95    c-0.45,2.27,1.08,4.15,3.36,4.16c4.23,0.02,8.47-0.19,12.69,0.04c13.62,0.74,27.25,0.11,40.86,0.52    c3.89,0.12,7.79,0.23,11.68,0.36c1.87,0.06,4.05,1.97,4.4,3.8c1.83,9.63,3.65,19.26,5.48,28.88c0.37,1.96-1.14,4.03-3.12,3.96    c-4.42-0.14-8.87,0.52-13.27-0.42c-0.29-0.06-0.6-0.01-0.91-0.01c-22.86,0.31-45.72-0.35-68.58-0.61    c-12.88-0.15-25.78,0.13-38.65-0.38c-4.93-0.2-9.84-0.51-14.77-0.13c-0.69,0.05-0.81-0.36-0.66-1.17    c0.82-4.5,1.32-9.05,1.69-13.62c0.32-3.93,1.2-7.82,1.99-11.69c0.62-3.01,0.53-6.13,1.51-9.09c0.46-1.38,0.87-1.83,2.47-1.42    c2.95,0.77,6,0.89,9.03,0.11c0.7-0.18,1.52-0.12,2.25,0.02c2.65,0.54,4.25-0.46,4.9-3.17c2.41-10.01,4.32-20.12,6.36-30.21    c2.2-10.88,4.32-21.78,6.86-32.59c1.44-6.14,1.99-12.51,4.67-18.36c1.21-2.64,0.52-5.68,1.1-8.52c1.92-9.3,3.58-18.66,5.51-27.96    c1.83-8.78,3.9-17.52,5.79-26.29c0.34-1.56,0.51-3.16,0.93-4.72c0.36-1.36-1.87-3.55-3.54-3.56c-5.59-0.03-11.2-0.32-16.77,0.05    c-11.98,0.81-23.96,0.13-35.94,0.37c-1.19,0.02-2.4-0.03-3.48,0.5c-1.66,0.81-2.03-0.03-1.88-1.41c0.36-3.5,1.26-6.9,1.99-10.33    c1.46-6.86,2.9-13.72,4.34-20.58c0.18-0.86,0.18-1.77,0.5-2.57c0.37-0.94,0.92-1.83,1.52-2.65c0.96-1.3,1.63,0.29,2.46,0.34    c0.6,0.03,1.21,0.03,1.81,0.03c6.5,0,13-0.03,19.5,0.01c3.85,0.03,7.7,0.35,11.57,0.02c2.45-0.21,4.89,0.83,7.37,0.4    c6.39-1.1,12.84-0.69,19.26-1c2.37-0.12,4.77-0.32,7.15-0.32c16.4-0.03,32.8,0.14,49.19-0.1c6-0.09,12.04-0.01,18.02-0.48    c4.46-0.35,8.96,0.07,13.38-0.79c0.31-0.06,0.58-0.09,0.65-0.46C898.54,171.59,900.96,171.59,903.38,171.59z" fill="#003a84"/>
		<path class="st0" d="M40,171.59c1.36,0.8,2.98,0.85,4.38,0.82c5.35-0.11,10.66,0.44,15.99,0.6c20.74,0.62,41.49,0.11,62.23,0.48    c6.18,0.11,12.38,0.12,18.55,0.42c2.94,0.14,5.85,1.18,8.84,0.82c3.64-0.44,7.3,0.1,10.88-0.12c9.8-0.59,19.6-0.52,29.36-0.2    c13.19,0.44,26.39-0.13,39.56,0.45c7.08,0.31,14.14,0.13,21.21,0.33c2.72,0.07,5.22,1.89,5.72,4.49c1.7,8.76,3.36,17.53,4.99,26.3    c0.09,0.46,0.33,0.83,0.43,1.24c0.61,2.52-1.03,4.63-3.66,4.64c-7.78,0.03-15.59,0.38-23.35-0.08    c-11.46-0.68-22.91,0.09-34.35-0.41c-13.64-0.61-27.3,0.08-40.92-0.51c-11.46-0.49-22.92,0.18-34.35-0.41    c-12.89-0.67-25.79,0.16-38.66-0.48c-10.48-0.52-20.94-0.17-31.41-0.33c-6.99-0.11-13.97-0.77-20.97-0.5    c-1.98,0.07-4.1-1.99-4.46-3.95c-1.69-9.05-3.27-18.12-5.42-27.07c-0.16-0.67,0.46-1.52-0.47-2c0-0.75,0-1.51,0-2.26    c1.44-1.84,3.4-1.96,5.53-1.86c1.01,0.05,2.18,0.54,3.09-0.41C35.16,171.59,37.58,171.59,40,171.59z" fill="#003a84"/>
		<path class="st1" d="M478.7,403.43c-3.33,0-6.68-0.26-9.97,0.06c-4.62,0.46-7.19-1.7-9.34-5.51    c-7.1-12.55-14.47-24.95-21.69-37.44c-5.94-10.28-11.79-20.6-17.71-30.89c-2.69-4.67-5.44-9.31-8.15-13.97    c-1.7-2.94-3.54-3.35-6.49-1.6c-10.78,6.4-21.6,12.74-32.37,19.16c-10.27,6.13-20.46,12.38-30.75,18.47    c-3.41,2.02-3.44,5.33-3.87,8.58c-0.71,5.4-1.46,10.8-2.17,16.2c-0.36,2.78-0.67,5.57-1,8.36c-0.6,5.05-1.18,10.11-1.83,15.16    c-0.21,1.62-2.37,3.4-4.05,3.41c-9.22,0.02-18.44,0.03-27.66-0.01c-2.48-0.01-4.26-1.6-5.38-3.49    c-5.37-9.09-10.55-18.29-15.84-27.43c-5.88-10.15-11.83-20.25-17.7-30.4c-4.85-8.38-9.59-16.83-14.44-25.21    c-5.87-10.15-11.83-20.25-17.7-30.4c-2.73-4.73-5.32-9.53-8.03-14.28c-1.48-2.59-3.65-4.17-6.76-4.16    c-5.21,0-10.44-0.19-15.64,0.07c-3.51,0.17-7.05,0.74-10.48,1.53c-3.77,0.86-5.11,3.29-5.51,8.2c-0.39,4.78-0.99,9.53-1.74,14.27    c-0.66,4.16-0.93,8.37-1.42,12.55c-0.21,1.75-0.59,3.47-0.78,5.22c-0.18,1.63,0.17,3.27,0.96,4.64c3.45,6,7.01,11.93,10.56,17.87    c4.44,7.44,8.88,14.89,13.34,22.32c6.87,11.43,13.77,22.84,20.64,34.27c1.91,3.18,3.8,6.38,5.64,9.61    c1.74,3.05,0.71,4.83-2.7,4.84c-7.25,0-14.52-0.17-21.76,0.07c-3.74,0.12-6.03-1.57-7.72-4.52c-6.53-11.36-12.91-22.81-19.56-34.1    c-5.03-8.54-10.47-16.84-15.59-25.33c-2.67-4.43-4.68-9.28-7.94-13.33c-3.72-4.62-5.79-9.97-7.96-15.4    c-1.82-4.55-4.8-8.64-7.27-12.93c-3.24-5.61-6.4-11.27-9.75-16.82c-2.22-3.68-3.95-7.67-6.77-10.98c-1.25-1.47-2.9-2.12-4.92-2.09    c-5.67,0.08-11.34-0.11-17,0.08c-3.43,0.12-6.85,0.74-10.16,1.75c-2.71,0.83-3.84,2.71-4.24,5.43c-0.8,5.54-1.19,11.13-2.14,16.65    c-0.7,4.07-0.94,8.22-1.45,12.32c-0.53,4.31-1.15,8.61-1.71,12.92c-0.36,2.78-0.66,5.57-1.01,8.35    c-0.59,4.68-1.23,9.35-1.79,14.04c-0.51,4.33-0.87,8.68-1.4,13.01c-0.52,4.24-1.21,8.45-1.75,12.68    c-0.52,4.03-0.87,8.08-1.43,12.1c-0.75,5.47-1.12,10.99-2.17,16.42c-0.31,1.58-0.21,3.23-0.47,4.85    c-0.49,3.06-2.19,4.78-5.29,4.78c-7.48,0-14.96,0.01-22.45,0c-2.76,0-4.33-2.32-3.81-5.09c0.54-2.9,0.72-5.86,1.1-8.79    c0.57-4.38,1.27-8.75,1.72-13.14c0.28-2.72,0.68-5.42,0.96-8.14c0.49-4.77,1.09-9.52,1.8-14.26c0.62-4.16,0.81-8.39,1.44-12.55    c0.67-4.37,0.94-8.78,1.7-13.15c0.72-4.14,0.93-8.37,1.45-12.55c0.53-4.24,1.19-8.45,1.73-12.69c0.38-3.01,0.61-6.03,0.99-9.04    c0.55-4.38,1.19-8.76,1.74-13.14c0.51-4.03,0.98-8.06,1.42-12.1c0.5-4.62,1.13-9.21,1.73-13.82c0.51-3.88,1.29-7.77,1.35-11.65    c0.09-5.48,3.28-8.27,7.7-10.08c5.81-2.39,11.88-3.51,18.22-3.83c3.37-0.17,6.7,0.36,9.98,0.06c7.75-0.72,15.51,0,23.25-0.42    c4.01-0.22,7.49,0.83,10.33,3.5c6.17,5.81,12.21,11.77,15.85,19.62c1.62,3.49,3,7.08,4.6,10.58c0.43,0.93,0.79,2.29,2.26,2.09    c1.47-0.2,2.1-1.48,2.16-2.68c0.14-2.82,0.64-5.58,0.98-8.37c0.58-4.67,1.12-9.35,1.84-14c0.35-2.23,2.21-3.69,3.92-4.67    c5.03-2.91,10.55-4.44,16.36-5.16c5.26-0.65,10.54,0.04,15.76-0.46c7.75-0.74,15.51-0.05,23.25-0.44    c4.01-0.21,7.24,1.33,9.98,3.88c6.54,6.07,12.73,12.51,16.06,20.99c4.32,11,11.08,20.61,17.06,30.67    c7.74,13.03,15.42,26.08,23.19,39.09c6.72,11.26,13.55,22.46,20.23,33.74c0.64,1.09,1.33,1.34,2.31,1.15    c0.96-0.19,1.38-0.88,1.51-1.93c0.8-6.22,1.59-12.43,2.28-18.66c0.88-7.83,2.11-15.62,3.11-23.43c0.55-4.33,0.86-8.68,1.4-13.01    c0.68-5.4,1.53-10.79,2.22-16.19c0.54-4.25,0.89-8.53,1.41-12.79c0.52-4.31,1.17-8.61,1.72-12.92c0.37-2.93,0.64-5.88,1-8.81    c0.44-3.66,0.68-7.36,1.48-10.94c0.58-2.61,2.79-4.21,5.15-5.45c4.72-2.48,9.73-3.79,15.01-4.51c3.31-0.45,6.59-0.18,9.87-0.38    c9.63-0.57,19.27-0.3,28.91-0.52c3.97-0.09,7.26,1.11,10.03,3.69c6.59,6.13,13.01,12.49,16.48,21.02    c6.29,15.49,16.13,28.95,24.44,43.29c5.22,9.01,10.64,17.92,15.96,26.88c6.09,10.27,12.17,20.55,18.27,30.82    c0.54,0.91,1.36,1.33,2.47,1.17c1.15-0.17,1.42-1.15,1.53-1.93c0.55-4.02,0.91-8.07,1.42-12.1c0.54-4.23,1.24-8.45,1.77-12.68    c0.53-4.18,0.89-8.38,1.4-12.56c0.54-4.39,1.3-8.75,1.72-13.14c0.38-3.97,0.93-7.92,1.43-11.87c0.58-4.53,1.12-9.06,1.72-13.59    c0.38-2.85,0.64-5.73,1-8.59c0.57-4.53,1.05-9.07,1.76-13.59c0.67-4.31,1.12-8.66,1.37-13.01c0.22-3.79,2.02-6.42,5.19-8.15    c4.92-2.7,10.21-4.19,15.83-4.77c2.09-0.22,4.16-0.32,6.24-0.34c10.77-0.14,21.53-0.58,32.31-0.55c3.96,0.01,7.24,1.14,10.03,3.71    c6.69,6.15,12.95,12.7,16.56,21.23c1.93,4.55,3.64,9.18,6.4,13.33c0.59,0.88,1.31,1.43,2.42,1.21c1.11-0.21,1.46-0.92,1.69-2.01    c1.1-5.3,1.08-10.59,0.45-15.95c-0.63-5.41-1.71-10.72-4.19-15.55c-3.13-6.11-7.54-10.85-13.99-14.07    c-5.02-2.51-10.06-4.47-15.46-5.6c-3.89-0.81-7.84-1.38-11.84-1.63c-9.1-0.55-18.21-0.4-27.32-0.43c-0.6,0-1.4-0.2-1.77,0.1    c-2.11,1.73-4.49,0.78-6.75,0.77c-2.37-0.01-3.19-1.37-3.11-3.79c0.2-5.85,2.03-11.43,2.7-17.18c0.51-4.4,0.72-8.84,1.42-13.22    c0.39-2.44,2.37-4.25,4.86-4.26c3.93-0.02,7.87-0.16,11.79,0.03c7,0.33,14,0.76,20.98,1.38c2.87,0.26,5.91,0.24,8.58,1    c6.34,1.79,12.83,3.12,18.92,5.79c9.02,3.95,16.67,9.75,23.26,16.94c4.32,4.71,7.97,9.95,10.9,15.64c0.92,1.8,3.53,2.86,3.43,4.44    c-0.12,1.97,0.39,3.47,0.98,5.18c2.16,6.29,3.86,12.66,4.79,19.29c0.96,6.87,1.15,13.76,0.73,20.61    c-0.74,11.95-2.51,23.78-8.52,34.44c-2.22,3.95-1.1,7.15,1.04,10.58c4.59,7.36,9.01,14.82,13.46,22.26    c3.37,5.62,6.03,11.82,10.2,16.76c4.19,4.97,5.71,11.15,9.39,16.28c3.68,5.14,6.62,10.8,9.89,16.24    c3.12,5.18,6.26,10.35,9.35,15.54c0.91,1.53,2,3.46,0.03,4.66c-1.62,0.99-3.72,1.9-5.71,1.29c-1.24-0.38-2.42-0.6-3.68-0.6    c-4.61,0-9.24-0.27-13.82,0.08c-4.62,0.35-7.2-1.7-9.35-5.52c-6.48-11.48-13.25-22.8-19.84-34.22    c-5.5-9.52-10.91-19.09-16.38-28.63c-1.05-1.83-2.15-3.64-3.31-5.41c-1.51-2.31-3.21-2.59-5.53-1c-4.34,2.97-8.8,5.77-13.56,8    c-8.65,4.07-17.68,7.11-27.02,9.14c-1.87,0.41-3.84,0.42-5.77,0.49c-8.16,0.29-16.3,1.22-24.49,0.96    c-2.19-0.07-3.94,2.33-4.21,5.1c-0.54,5.72-1.38,11.41-2.22,17.09c-0.62,4.16-0.89,8.37-1.42,12.54    c-0.53,4.23-1.28,8.44-1.73,12.68c-0.16,1.54-0.33,3.09-0.5,4.63c-0.26,2.26-2.06,4.05-4.34,4.06    C487.17,403.45,482.93,403.43,478.7,403.43z M533.15,268.04c-4.63-0.4-10.46,0.28-16.26,1.35c-2.68,0.5-5.3,2.53-5.66,4.86    c-0.47,2.99-0.66,6.02-1,9.03c-0.46,4.18-0.9,8.37-1.43,12.54c-0.53,4.15-1.22,8.29-1.71,12.45c-0.2,1.72,1.84,3.63,3.66,3.69    c3.07,0.09,6.1-0.49,9.17-0.57c1.59-0.04,3.27-0.1,4.87-0.38c5.05-0.89,10.16-1.41,15.16-2.65c7.18-1.79,14.09-4.21,20.21-8.47    c2.28-1.59,2.84-3.82,1.71-5.77c-4.36-7.48-8.67-14.99-13.12-22.42c-1.38-2.31-3.41-3.82-6.39-3.68    C539.72,268.14,537.08,268.04,533.15,268.04z M370.96,268.04c-4.71-0.36-10.54,0.24-16.34,1.35c-3.14,0.6-5.92,2.99-5.9,6.58    c0.01,3-0.68,6-0.96,9.02c-0.4,4.32-1.11,8.61-1.68,12.91c-0.41,3.06-0.88,6.12-1.18,9.2c-0.24,2.51-0.86,4.99-0.63,7.53    c0.14,1.57,1.78,2.59,3.07,1.86c3.48-1.97,6.94-4,10.41-5.99c6.25-3.59,12.5-7.17,18.74-10.77c5.49-3.16,10.97-6.32,16.43-9.54    c1.54-0.91,2.28-3.49,1.47-4.91c-2.67-4.67-5.25-9.4-8.15-13.92c-1.37-2.14-3.48-3.56-6.38-3.36    C377.3,268.18,374.73,268.04,370.96,268.04z" fill="#003a84"/>
		<path class="st0" d="M715.83,364.04c5.49,0,9.95,0.12,14.41-0.04c3.79-0.13,7.57-0.52,11.34-0.89c1.84-0.18,1.99,0.67,1.63,2.1    c-0.89,3.56-1.52,7.19-2.67,10.66c-1.69,5.1-2.5,10.37-3,15.64c-0.23,2.49-0.03,5.04-0.55,7.55c-0.43,2.05-2.41,3.91-4.51,3.92    c-6.77,0.03-13.54-0.27-20.29-0.56c-11.46-0.5-22.86-1.89-33.79-5.76c-8.23-2.91-15.64-7.13-22.23-12.93    c-8.67-7.64-14.85-16.9-19.49-27.39c-2.73-6.17-4.47-12.54-5.9-19.1c-1.95-8.96-1.47-18.01-1.14-26.98    c0.31-8.61,2.04-17.11,5.21-25.26c2.81-7.21,6.59-13.76,11.34-19.87c5.85-7.53,12.99-13.66,20.86-18.81    c9.64-6.31,20.05-11.21,31-14.96c5.71-1.96,11.48-3.73,17.32-5.22c3.33-0.85,6.82-1.19,10.26-1.53    c7.02-0.69,14.05-1.37,21.09-1.77c3.5-0.2,7.02-0.07,10.55,0.29c4.26,0.42,8.62-0.1,12.91,0.17c3.11,0.2,6.12,0.24,9.18-0.47    c1.88-0.44,2.8,0.93,2.25,2.72c-0.67,2.17-1.34,4.33-1.13,6.71c0.44,5.03-1.56,9.64-2.85,14.35c-0.74,2.69-0.87,5.48-1.66,8.13    c-1.01,3.37-2.29,4.27-5.74,4.27c-5.06,0-10.13,0.04-15.19-0.01c-4.88-0.05-9.77,0.25-14.62,0.6c-7.09,0.5-14.16,1.53-21.19,2.87    c-4.53,0.86-9.12,1.68-13.45,3.04c-7.52,2.36-14.85,5.29-21.47,9.91c-3.88,2.72-7.45,5.65-10.66,9.05    c-3.74,3.96-6.55,8.52-9.07,13.39c-3.09,5.98-4.01,12.38-5.2,18.81c-0.5,2.69,0.15,5.33-0.06,7.91c-0.41,5.04,0.95,9.66,2.39,14.3    c3.07,9.86,9.78,16.26,19.17,20.22c6.2,2.62,12.68,3.76,19.32,4.58C705.76,364.34,711.31,363.69,715.83,364.04z" fill="#003a84"/>
	</g>
</g>
</svg>