<svg version="1.1" id="Layer_1" xmlns="http://www.w3.org/2000/svg" xmlns:xlink="http://www.w3.org/1999/xlink" x="0px" y="0px"
	 width="100%" viewBox="0 0 848 848" enable-background="new 0 0 848 848" xml:space="preserve">
<path fill="#e6cec2" opacity="1.000000" stroke="none"
	d="
M340.381409,702.286987 
	C339.137512,711.596436 336.901825,720.245483 334.395813,728.828674 
	C332.670990,734.736206 330.968964,740.650391 331.602020,746.899780 
	C332.532562,756.085938 338.141632,762.486572 345.034027,767.659546 
	C368.998291,785.645447 395.534088,798.927307 423.412964,809.653442 
	C427.160858,811.095459 430.714935,812.900818 433.925568,815.300659 
	C438.448059,818.680969 443.331848,832.570496 441.843170,837.842163 
	C441.090637,840.507080 439.522736,842.955505 436.895874,843.790955 
	C429.563019,846.122986 422.621094,849.067322 414.243408,846.189087 
	C395.755829,839.837585 376.915070,834.509277 358.196289,828.836548 
	C333.740387,821.425049 309.658112,812.917419 285.637970,804.226379 
	C273.605743,799.872803 261.024323,797.493530 248.789246,793.862610 
	C228.937317,787.971252 208.921524,782.654724 189.063385,776.764160 
	C176.853729,773.142334 164.310410,770.543030 152.145264,766.678711 
	C144.766525,764.334778 141.020645,758.046082 137.530136,751.753906 
	C136.476578,749.854736 137.434326,747.893616 138.393906,746.062317 
	C143.696808,735.942200 157.851273,730.485840 168.879379,733.897583 
	C177.152664,736.457092 185.907913,736.466248 194.432343,737.700867 
	C207.518127,739.596008 220.678299,740.983154 233.815598,742.511108 
	C235.953064,742.759644 238.278076,743.133179 240.271881,742.575195 
	C248.377930,740.306641 256.842804,741.531006 264.985779,739.670715 
	C277.314758,736.854126 285.316010,729.647888 288.514557,717.318665 
	C292.949341,700.224243 297.177704,683.073547 301.846497,666.043457 
	C305.341644,653.294434 309.795258,640.801697 313.091949,628.006653 
	C317.022400,612.751892 322.256165,597.921143 326.754669,582.855408 
	C330.537628,570.186218 334.774689,557.635864 338.061646,544.840454 
	C340.850922,533.982422 340.863770,522.778442 339.293335,511.655701 
	C336.588928,492.501801 327.721558,475.440430 320.424164,457.919373 
	C311.101318,435.535217 300.854309,413.535553 290.978516,391.382233 
	C285.305420,378.656433 279.336212,366.088501 274.770264,352.858917 
	C271.147766,342.363007 269.618835,331.559387 268.875397,320.737274 
	C267.595642,302.107117 269.589142,283.488831 272.118195,265.051361 
	C273.341309,256.134430 276.317169,247.375946 279.222107,238.790237 
	C283.995117,224.683395 289.220032,210.723877 294.505280,196.797455 
	C300.604950,180.725067 309.369781,165.972397 317.705902,151.014740 
	C323.613953,140.413773 328.881287,129.476486 333.535706,118.288864 
	C337.576782,108.575523 343.071167,99.637398 347.582916,90.183754 
	C349.564148,86.032372 356.253967,83.980667 361.020447,84.474182 
	C373.440735,85.760124 384.710022,90.128151 395.823669,95.615707 
	C409.835602,102.534332 425.015320,105.874306 440.292145,109.028572 
	C456.505890,112.376297 472.399292,117.219521 487.476440,124.222069 
	C501.816925,130.882462 516.605408,135.811234 532.148621,138.954346 
	C548.278748,142.216141 564.503723,145.121841 580.271484,150.213882 
	C585.936951,152.043472 592.346375,151.849335 598.247498,153.677979 
	C607.068054,156.411270 615.235352,160.405640 622.578857,165.980713 
	C627.153687,169.453903 629.982300,181.240860 627.473206,187.271805 
	C622.746094,198.634155 621.949890,210.750214 620.200073,222.686081 
	C618.613525,233.508102 617.170593,244.351700 615.743774,255.196243 
	C615.419556,257.660004 615.353699,260.165039 615.286377,262.654236 
	C614.836792,279.281219 613.431091,295.877869 609.826660,312.072571 
	C605.532166,331.367828 598.131409,349.721741 590.116882,367.783356 
	C579.259033,392.252502 563.808289,413.651337 545.486023,432.937073 
	C535.451233,443.499634 523.081055,451.249268 510.229095,458.032135 
	C488.022766,469.751862 466.311127,482.331055 444.919464,495.453888 
	C415.270142,513.642334 394.109772,539.155212 381.631866,571.530334 
	C376.930634,583.728210 374.008698,596.632202 368.938263,608.722839 
	C361.979980,625.315063 357.415863,642.658142 352.059052,659.758545 
	C348.294281,671.776672 343.680969,683.550171 342.042084,696.160706 
	C341.790375,698.097351 340.961334,699.958923 340.381409,702.286987 
M376.156952,105.302727 
	C373.787384,104.567207 371.408813,103.859215 369.049957,103.090836 
	C362.822723,101.062370 359.826538,102.293968 357.036621,108.341331 
	C353.280914,116.482086 349.674377,124.691498 345.957825,132.850494 
	C338.852417,148.449173 330.720215,163.517120 322.222443,178.388809 
	C310.355652,199.156647 303.518555,221.966797 295.399658,244.253571 
	C293.363556,249.842743 291.526001,255.506546 290.318695,261.369080 
	C288.170441,271.800690 288.045532,282.445435 286.771515,292.937103 
	C283.808502,317.337708 286.646698,340.597321 296.858887,362.954834 
	C298.856506,367.328278 301.732788,368.148743 305.696289,365.237000 
	C307.833313,363.667145 309.626068,361.564819 311.888641,360.239777 
	C329.591736,349.872528 348.629028,342.379883 367.808746,335.398468 
	C386.459045,328.609772 405.518097,322.952881 424.317047,316.561829 
	C449.283752,308.073914 472.814575,296.851746 494.040375,280.866150 
	C505.875275,271.953064 517.359009,262.673065 528.708313,253.169449 
	C546.767456,238.047211 563.272217,221.437958 578.372803,203.381348 
	C584.564575,195.977570 589.862488,187.907089 595.865784,180.391068 
	C601.180359,173.737259 600.994812,171.982910 592.897522,169.742050 
	C591.943848,169.478104 590.909363,169.504883 589.956665,169.238495 
	C582.604675,167.182816 574.861450,167.082993 567.579590,164.618301 
	C558.159912,161.430023 548.504211,158.867096 538.684082,157.576904 
	C518.730896,154.955414 499.933716,148.890594 481.787506,140.415634 
	C469.429169,134.643829 456.415558,130.641495 443.218597,127.403801 
	C430.519440,124.288239 417.771637,121.420837 405.172485,117.865341 
	C395.134583,115.032616 386.170624,109.991005 376.156952,105.302727 
M248.488129,758.338745 
	C221.145050,759.728577 194.253830,755.008057 166.055862,750.895447 
	C169.294037,755.541199 172.894287,754.440735 175.789017,755.276306 
	C193.458817,760.376709 211.161636,765.362732 228.854034,770.384888 
	C240.472412,773.682922 252.139252,776.820862 263.694733,780.326050 
	C272.081512,782.869995 280.798523,784.108765 289.043091,787.205261 
	C316.330414,797.453857 344.043030,806.413513 371.878204,815.069885 
	C386.113525,819.496887 400.804199,822.516663 414.589172,828.394409 
	C416.407013,829.169556 418.311218,829.600281 420.169128,827.795959 
	C416.900696,824.651428 412.553589,824.922974 409.029266,823.240173 
	C383.063599,810.842285 356.704651,799.103088 334.112549,780.783142 
	C320.211853,769.511047 312.022400,755.579468 315.230652,736.930603 
	C316.012787,732.384033 317.561310,727.973816 318.647278,723.474243 
	C322.834839,706.124207 324.968872,688.323792 330.547638,671.265869 
	C335.997742,654.601440 340.826721,637.734802 346.183868,621.038940 
	C351.897034,603.233337 359.298370,586.035645 364.810181,568.118591 
	C369.513367,552.830322 377.332886,538.829346 387.386383,526.188599 
	C398.374817,512.372253 409.167267,498.406403 424.731964,489.212311 
	C426.401917,488.225891 428.114838,486.976013 427.829590,484.137634 
	C424.719788,482.940094 421.414459,483.264465 418.178955,483.732025 
	C406.187653,485.464996 394.290283,484.750000 382.501892,482.291473 
	C371.571533,480.011993 361.052704,476.546692 351.535919,470.461670 
	C349.751495,469.320770 347.429169,467.976105 345.572876,469.812866 
	C343.963379,471.405457 345.177948,473.717621 345.958374,475.418396 
	C350.973907,486.348694 353.699432,497.782959 355.872620,509.638885 
	C358.345703,523.130737 356.968536,536.075073 354.333466,549.069519 
	C351.330383,563.878540 345.948975,578.052551 341.681732,592.524414 
	C334.834717,615.745239 327.282257,638.760193 320.585510,662.022644 
	C314.580078,682.883606 309.456299,703.996765 303.684418,724.927185 
	C300.946228,734.856628 295.315613,742.840149 286.510376,748.620544 
	C275.196503,756.047913 262.580139,757.983948 248.488129,758.338745 
z"/>
<path fill="#e6cec2" opacity="1.000000" stroke="none"
	d="
M744.923706,170.284698 
	C736.329834,165.895706 729.567627,159.797852 722.850098,153.509521 
	C712.821960,144.122009 701.491943,136.594162 688.424805,131.987106 
	C686.731506,131.390106 684.862488,131.249756 683.059875,131.011444 
	C675.249268,129.978882 669.903625,125.004272 669.715393,118.537338 
	C669.544189,112.654572 673.736389,108.899620 682.021667,107.152130 
	C695.227600,104.366776 708.617371,102.354202 722.014954,103.938553 
	C740.515076,106.126305 757.646301,112.680328 773.286438,122.997849 
	C780.554688,127.792534 786.084229,133.847275 789.868469,141.790283 
	C794.812683,152.167740 787.347656,168.734650 777.176697,171.711609 
	C766.581238,174.812820 755.681946,176.220718 744.923706,170.284698 
z"/>
<path fill="#e6cec2" opacity="1.000000" stroke="none"
	d="
M633.726074,14.627312 
	C645.010132,8.638986 656.742737,4.515962 668.898010,3.075397 
	C687.593445,0.859735 702.991150,12.645544 699.766113,32.627029 
	C697.984314,43.666977 689.729431,51.596943 679.589966,56.618889 
	C673.494995,59.637665 666.956055,61.039715 659.991577,61.394039 
	C640.587036,62.381283 621.724426,65.608521 605.201050,77.066391 
	C601.752686,79.457619 597.865784,81.829796 593.182861,80.260109 
	C586.301086,77.953384 583.901123,72.250015 587.619812,64.518471 
	C595.488159,48.159451 605.407227,33.293648 620.805786,22.835642 
	C624.930054,20.034645 628.959229,17.103207 633.726074,14.627312 
z"/>
</svg>