<svg xmlns="http://www.w3.org/2000/svg" viewBox="0 0 400 518">
    <g stroke="#e6cec2" fill="#e6cec2" transform="matrix(0.180249, 0, 0, -0.180249, -8.383465, 541.084167)" style="">
        <g>
            <path d="M 50 2987.09 C 50 2975.16 69 2970.2 145 2965.23 L 240 2958.28 L 240 2605.61 C 240 2328.45 243 2253.95 253 2256.93 C 259 2259.91 266 2273.81 268 2288.72 C 271 2310.57 276 2315.54 291 2311.56 C 303 2308.58 310 2311.56 310 2320.5 C 310 2327.46 316 2331.43 323 2328.45 C 333 2324.48 335 2331.43 332 2354.28 C 330 2371.17 332 2384.08 336 2382.1 C 349 2379.11 393 2404.94 386 2411.9 C 382 2414.88 371 2417.86 360 2418.85 C 345 2419.85 343 2416.86 351 2407.93 C 357 2400.97 357 2394.02 352 2390.04 C 346 2387.06 339 2391.04 336 2399.98 C 327 2422.83 312 2407.93 317 2381.1 C 320 2367.2 315 2352.29 306 2345.34 C 294 2335.41 290 2335.41 290 2343.35 C 290 2350.31 286 2352.29 280 2349.31 C 274 2346.33 270 2348.32 270 2354.28 C 270 2361.23 277 2364.21 285 2361.23 C 307 2352.29 313 2371.17 293 2383.09 C 276 2393.02 276 2395.01 293 2407.93 C 302 2414.88 310 2428.79 310 2438.72 C 310 2448.66 313 2454.61 316 2451.64 C 319 2447.66 334 2448.66 350 2453.62 C 368 2458.59 382 2457.59 391 2450.64 C 398 2443.69 393 2453.62 380 2472.5 C 365 2494.35 360 2508.26 367 2510.25 C 374 2513.23 376 2521.17 373 2529.12 C 370 2536.07 363 2540.05 356 2536.07 C 350 2532.1 351 2537.07 359 2547 C 373 2563.89 375 2562.9 392 2541.04 C 409 2520.18 411 2520.18 408 2538.06 C 406 2550.98 411 2557.93 422 2557.93 C 431 2557.93 442 2561.9 447 2565.88 C 451 2570.84 451 2572.83 445 2571.84 C 440 2569.85 426 2571.84 414 2575.81 C 398 2581.77 394 2589.72 398 2607.6 C 400 2621.51 406 2635.42 411 2638.4 C 416 2641.38 420 2648.33 420 2653.3 C 420 2659.26 416 2660.25 410 2657.27 C 404 2654.29 400 2661.25 400 2674.16 C 400 2690.05 403 2693.03 409 2684.09 C 416 2673.17 418 2673.17 423 2685.09 C 426 2692.04 424 2704.96 419 2712.9 C 412 2724.82 410 2724.82 409 2711.91 C 409 2701.98 406 2703.96 401 2716.88 C 396 2728.8 397 2739.72 404 2743.7 C 410 2747.67 411 2753.63 408 2757.61 C 404 2761.58 410 2777.47 421 2792.38 C 434 2811.25 437 2821.18 429 2821.18 C 422 2821.18 419 2824.17 423 2827.15 C 426 2830.13 434 2830.13 440 2826.15 C 448 2821.18 448 2815.22 439 2805.29 C 430 2794.36 430 2791.38 439 2791.38 C 446 2791.38 448 2785.42 444 2779.46 C 440 2772.51 446 2775.49 457 2786.42 C 471 2799.33 473 2808.27 466 2813.24 C 459 2818.2 460 2821.18 469 2821.18 C 480 2821.18 480 2824.17 470 2836.09 C 463 2845.03 460 2853.97 464 2857.94 C 467 2860.92 470 2858.93 470 2852.97 C 470 2846.02 475 2841.05 481 2841.05 C 487 2841.05 490 2849 488 2858.93 C 486 2870.86 477 2874.83 455 2872.84 C 433 2870.86 429 2872.84 440 2879.8 C 448 2884.76 457 2887.74 461 2884.76 C 465 2882.78 470 2885.76 472 2891.72 C 474 2897.68 486 2896.68 505 2886.75 C 522 2877.81 541 2870.86 548 2870.86 C 568 2870.86 562 2888.74 540 2893.7 C 523 2897.68 524 2897.68 542 2896.68 C 572 2895.69 572 2866.88 542 2862.91 C 523 2859.93 521 2856.95 531 2845.03 C 540 2834.1 546 2833.11 557 2842.05 C 575 2857.94 579 2851.98 573 2819.2 C 570 2802.31 563 2794.36 556 2798.34 C 550 2801.32 548 2801.32 552 2796.35 C 556 2792.38 555 2782.44 549 2775.49 C 542 2766.55 547 2761.58 570 2756.61 C 591 2751.65 600 2745.69 596 2735.75 C 593 2727.8 595 2721.84 601 2721.84 C 607 2721.84 608 2716.88 604 2709.92 C 600 2702.97 601 2701.98 608 2705.95 C 616 2709.92 620 2705.95 620 2695.02 C 620 2680.12 622 2679.13 630 2692.04 C 639 2704.96 641 2704.96 650 2692.04 C 657 2681.11 655 2676.15 646 2674.16 C 630 2671.18 617 2632.44 631 2632.44 C 636 2632.44 640 2637.4 640 2642.37 C 640 2648.33 646 2652.3 654 2652.3 C 662 2652.3 671 2662.24 673 2675.15 C 677 2690.05 678 2688.07 677 2667.21 C 676 2646.34 663 2625.48 635 2598.66 C 570 2536.07 483 2465.54 460 2458.59 C 449 2455.61 440 2445.67 440 2437.73 C 440 2413.89 506 2393.02 601 2387.06 L 688 2381.1 L 691 2310.57 C 696 2154.6 695 2122.81 684 2118.84 C 678 2116.85 667 2127.78 661 2142.68 C 655 2157.58 641 2181.43 631 2194.34 L 613 2217.19 L 554 2192.35 C 522 2178.45 464 2156.59 426 2143.68 C 389 2130.76 355 2114.87 353 2107.91 C 347 2093.01 375 1976.78 397 1928.11 C 406 1908.24 412 1888.37 411 1884.39 C 410 1879.43 413 1878.43 418 1881.41 C 423 1884.39 437 1876.45 448 1864.53 L 469 1841.68 L 450 1779.09 C 439 1745.32 430 1705.58 430 1691.67 L 430 1666.84 L 358 1673.79 C 318 1677.76 281 1682.73 277 1685.71 C 273 1688.69 269 1733.39 270 1786.05 C 274 2094.01 270 2173.48 253 2179.44 C 238 2185.4 237 2147.65 244 1662.86 L 251 1140.33 L 198 1146.29 C 169 1150.26 129 1155.23 109 1158.21 C 75 1163.17 49 1150.26 68 1138.34 C 75 1134.37 185 1118.47 285 1106.55 C 313 1103.57 429 1090.65 543 1076.75 L 751 1052.91 L 791 1073.77 C 814 1084.69 834 1091.65 836 1089.66 C 839 1086.68 819 1041.98 793 989.327 L 745 892.966 L 711 898.926 C 641 911.841 474 971.446 422 1002.24 C 359 1039 345 1040.98 354 1011.18 C 367 969.459 365 959.525 345 955.551 C 300 947.604 296 944.623 314 925.748 C 337 898.926 334 877.071 304 870.117 C 267 860.183 280 840.315 330 832.367 C 426 815.479 751 782.697 765 788.657 C 773 791.637 818 872.104 864 966.479 C 961 1165.16 951 1157.21 1100 1167.15 C 1152 1170.13 1226 1180.06 1263 1188.01 C 1301 1196.95 1333 1201.92 1334 1199.93 C 1342 1191.98 1470 891.972 1470 883.032 C 1470 864.157 1218 905.88 1138 937.669 C 1077 962.505 1055 956.544 1085 923.762 C 1106 900.913 1098 874.091 1071 874.091 C 1042 874.091 1038 860.183 1061 841.308 C 1087 819.453 1085 806.539 1055 792.631 C 1028 780.71 1023 768.789 1042 762.828 C 1068 754.881 1467 772.762 1528 784.683 C 1597 798.591 1609 807.532 1588 832.367 C 1576 846.275 1540 918.795 1540 926.742 C 1540 928.729 1618 919.788 1713 906.874 C 1807 893.959 1955 875.084 2040 864.157 C 2125 853.229 2203 842.302 2212 840.315 C 2249 832.367 2250 854.223 2230 1108.54 C 2194 1580.41 2195 1547.63 2220 1574.45 C 2236 1591.34 2241 1606.24 2237 1626.11 C 2233 1645.97 2238 1659.88 2253 1676.77 C 2271 1696.64 2272 1700.61 2260 1708.56 C 2252 1713.53 2231 1718.49 2214 1718.49 L 2183 1718.49 L 2176 1820.82 C 2170 1915.19 2162 2018.51 2110 2702.97 C 2099 2848.01 2090 2974.17 2090 2983.11 C 2090 2992.05 2083 3000 2074 3000 C 2061 3000 2060 2991.06 2064 2948.34 C 2070 2895.69 2079 2781.45 2125 2145.66 C 2138 1956.91 2152 1786.05 2154 1764.19 L 2158 1726.44 L 2112 1733.39 C 2086 1737.37 2064 1741.34 2062 1743.33 C 2060 1745.32 2048 1918.17 2035 2126.79 C 2021 2336.4 2006 2575.81 2001 2657.27 C 1995 2739.72 1992 2813.24 1993 2821.18 C 1993 2829.13 1990 2872.84 1986 2918.54 C 1975 3023.84 1954 3026.82 1958 2922.51 L 1962 2850.99 L 1918 2850.99 C 1895 2851.98 1725 2864.9 1541 2879.8 C 1292 2900.66 1206 2911.59 1199 2921.52 C 1192 2933.44 1188 2933.44 1181 2922.51 C 1175 2911.59 1151 2911.59 1054 2919.53 C 989 2925.49 823 2939.4 685 2950.33 C 548 2961.26 386 2974.17 325 2980.13 C 57 3002.98 50 3003.97 50 2987.09 Z M 546 2919.53 C 550 2912.58 544 2910.59 529 2912.58 C 512 2914.57 506 2911.59 508 2900.66 C 511 2888.74 509 2887.74 498 2898.67 C 487 2909.6 488 2912.58 500 2920.53 C 520 2933.44 537 2932.45 546 2919.53 Z M 592 2902.65 C 590 2885.76 593 2883.77 611 2887.74 C 628 2892.71 631 2890.72 624 2879.8 C 606 2850.99 610 2839.07 636 2845.03 C 650 2849 660 2847.01 660 2841.05 C 660 2836.09 660 2828.14 660 2824.17 C 660 2819.2 655 2816.22 649 2816.22 C 642 2816.22 633 2807.28 628 2796.35 C 622 2780.45 621 2782.44 625 2804.3 C 631 2833.11 614 2841.05 593 2820.19 C 585 2812.24 582 2816.22 583 2835.09 C 584 2849 589 2860.92 594 2860.92 C 599 2860.92 597 2866.88 591 2874.83 C 574 2894.7 568 2932.45 583 2927.48 C 590 2925.49 594 2914.57 592 2902.65 Z M 664 2911.59 C 656 2903.64 621 2903.64 626 2911.59 C 628 2915.56 639 2918.54 650 2917.55 C 660 2916.55 667 2914.57 664 2911.59 Z M 750 2899.66 C 750 2894.7 743 2890.72 735 2890.72 C 726 2890.72 723 2896.68 726 2905.63 C 732 2920.53 750 2916.55 750 2899.66 Z M 994 2880.79 C 1013 2873.84 1020 2874.83 1020 2882.78 C 1020 2891.72 1023 2891.72 1031 2883.77 C 1047 2867.88 1032 2847.01 1015 2860.92 C 1007 2867.88 994 2867.88 976 2860.92 C 948 2850.99 947 2850.99 956 2874.83 C 963 2893.7 962 2893.7 994 2880.79 Z M 1102 2877.81 C 1109 2883.77 1124 2884.76 1135 2880.79 C 1146 2876.82 1161 2875.82 1167 2877.81 C 1175 2880.79 1180 2873.84 1180 2859.93 C 1180 2847.01 1183 2819.2 1186 2799.33 C 1193 2756.61 1186 2753.63 1150 2781.45 C 1136 2792.38 1114 2801.32 1100 2801.32 C 1086 2801.32 1065 2808.27 1053 2816.22 C 1037 2828.14 1031 2828.14 1027 2818.2 C 1024 2812.24 1021 2815.22 1020 2826.15 L 1019 2846.02 L 1004 2826.15 L 988 2806.28 L 992 2826.15 C 995 2840.06 1003 2845.03 1018 2844.03 C 1030 2842.05 1040 2846.02 1040 2851.98 C 1040 2857.94 1047 2860.92 1055 2856.95 C 1063 2853.97 1069 2854.96 1069 2858.93 C 1068 2862.91 1068 2872.84 1069 2880.79 C 1070 2893.7 1072 2893.7 1079 2881.78 C 1086 2870.86 1092 2869.86 1102 2877.81 Z M 1349 2864.9 C 1356 2858.93 1256 2772.51 1248 2777.47 C 1244 2780.45 1243 2775.49 1246 2766.55 C 1250 2755.62 1248 2752.64 1237 2757.61 C 1219 2763.57 1210 2792.38 1210 2842.05 L 1210 2878.8 L 1278 2873.84 C 1315 2870.86 1347 2866.88 1349 2864.9 Z M 929 2849.99 C 921 2834.1 921 2826.15 931 2817.21 C 940 2809.26 941 2809.26 936 2818.2 C 933 2824.17 935 2833.11 942 2837.08 C 949 2841.05 952 2841.05 948 2836.09 C 944 2832.11 946 2821.18 953 2813.24 C 962 2800.32 962 2799.33 953 2805.29 C 946 2809.26 940 2807.28 940 2802.31 C 940 2796.35 934 2791.38 926 2791.38 C 916 2791.38 912 2800.32 914 2819.2 C 916 2834.1 918 2851.98 919 2858.93 C 919 2864.9 925 2870.86 930 2870.86 C 937 2870.86 937 2863.9 929 2849.99 Z M 903 2841.05 C 900 2830.13 896 2821.18 895 2821.18 C 894 2821.18 890 2830.13 887 2841.05 C 884 2852.97 887 2860.92 895 2860.92 C 903 2860.92 906 2852.97 903 2841.05 Z M 1731 2836.09 C 1795 2832.11 1851 2826.15 1856 2823.17 C 1870 2812.24 1872 2790.39 1858 2792.38 C 1851 2793.37 1834 2793.37 1820 2792.38 C 1800 2791.38 1798 2789.4 1810 2781.45 C 1823 2773.5 1822 2771.51 1806 2771.51 C 1793 2771.51 1789 2776.48 1793 2791.38 C 1796 2802.31 1794 2809.26 1789 2805.29 C 1777 2798.34 1778 2764.56 1791 2756.61 C 1802 2749.66 1865 2775.49 1875 2791.38 C 1878 2797.34 1886 2801.32 1892 2801.32 C 1899 2801.32 1899 2797.34 1891 2787.41 C 1883 2777.47 1883 2771.51 1893 2762.57 C 1901 2756.61 1909 2753.63 1912 2756.61 C 1914 2759.59 1917 2754.63 1917 2746.68 C 1917 2733.76 1914 2733.76 1899 2747.67 C 1877 2766.55 1830 2759.59 1830 2736.74 C 1830 2723.83 1826 2723.83 1803 2738.73 C 1787 2748.67 1772 2760.59 1768 2765.55 C 1764 2771.51 1759 2769.53 1755 2759.59 C 1751 2749.66 1741 2745.69 1729 2748.67 C 1718 2751.65 1710 2748.67 1710 2742.71 C 1710 2735.75 1714 2732.77 1719 2735.75 C 1739 2748.67 1760 2728.8 1760 2698.99 C 1760 2675.15 1757 2671.18 1748 2680.12 C 1729 2698.99 1720 2694.03 1720 2665.22 C 1720 2640.38 1719 2639.39 1706 2657.27 C 1693 2675.15 1692 2675.15 1669 2656.28 C 1644 2636.41 1633 2612.57 1649 2612.57 C 1654 2612.57 1660 2618.53 1663 2625.48 C 1665 2631.44 1670 2634.42 1674 2631.44 C 1677 2628.46 1672 2616.54 1662 2604.62 C 1645 2585.75 1643 2585.75 1632 2600.65 C 1623 2614.55 1621 2614.55 1623 2602.63 C 1624 2593.69 1618 2588.73 1608 2590.71 C 1599 2591.71 1589 2588.73 1585 2582.77 C 1582 2577.8 1574 2572.83 1567 2572.83 C 1561 2572.83 1567 2580.78 1580 2589.72 C 1629 2624.49 1672 2676.15 1677 2708.93 C 1681 2730.78 1679 2741.71 1671 2741.71 C 1663 2741.71 1661 2733.76 1665 2719.86 C 1672 2697.01 1672 2697.01 1656 2716.88 L 1641 2736.74 L 1640 2716.88 C 1639 2698.99 1638 2698.99 1630 2719.86 C 1625 2731.78 1618 2741.71 1615 2741.71 C 1611 2741.71 1611 2738.73 1613 2734.76 C 1616 2729.79 1614 2717.87 1610 2706.94 C 1600 2680.12 1561 2681.11 1534 2708.93 C 1518 2724.82 1509 2726.81 1501 2718.86 C 1493 2710.92 1490 2711.91 1490 2723.83 C 1490 2732.77 1487 2748.67 1484 2758.6 C 1480 2771.51 1481 2773.5 1488 2762.57 C 1496 2751.65 1501 2752.64 1519 2767.54 C 1539 2784.43 1539 2786.42 1523 2793.37 C 1506 2799.33 1506 2800.32 1523 2800.32 C 1533 2801.32 1540 2809.26 1540 2822.18 C 1540 2838.07 1545 2842.05 1560 2838.07 C 1571 2835.09 1580 2837.08 1580 2843.04 C 1580 2848.01 1588 2849.99 1598 2847.01 C 1607 2845.03 1667 2840.06 1731 2836.09 Z M 860 2820.19 C 860 2815.22 865 2813.24 870 2816.22 C 876 2819.2 880 2817.21 880 2812.24 C 880 2796.35 864 2799.33 850 2816.22 C 841 2826.15 841 2831.12 849 2831.12 C 855 2831.12 860 2826.15 860 2820.19 Z M 1940 2811.25 C 1940 2806.28 1936 2801.32 1930 2801.32 C 1925 2801.32 1920 2806.28 1920 2811.25 C 1920 2817.21 1925 2821.18 1930 2821.18 C 1936 2821.18 1940 2817.21 1940 2811.25 Z M 593 2784.43 C 589 2773.5 590 2770.52 598 2775.49 C 605 2779.46 610 2777.47 610 2772.51 C 610 2766.55 603 2761.58 595 2761.58 C 587 2761.58 580 2770.52 580 2781.45 C 580 2792.38 584 2801.32 590 2801.32 C 595 2801.32 596 2794.36 593 2784.43 Z M 860 2781.45 C 860 2768.53 853 2761.58 840 2761.58 C 818 2761.58 817 2762.57 826 2785.42 C 835 2808.27 860 2805.29 860 2781.45 Z M 785 2782.44 C 788 2777.47 786 2770.52 780 2766.55 C 775 2763.57 770 2767.54 770 2775.49 C 770 2793.37 776 2796.35 785 2782.44 Z M 1098 2769.53 C 1164 2753.63 1233 2683.1 1249 2616.54 C 1269 2536.07 1251 2462.56 1170 2292.69 C 1132 2211.23 1100 2139.7 1100 2133.74 C 1100 2127.78 1110 2125.8 1123 2128.78 C 1270 2162.55 1301 2166.53 1365 2162.55 C 1535 2149.64 1652 2082.08 1806 1907.24 C 1941 1754.26 1991 1723.46 2150 1697.63 L 2221 1685.71 L 2199 1662.86 C 2179 1642 2179 1639.02 2194 1633.06 C 2220 1623.13 2213 1602.26 2170 1572.46 C 2149 1557.56 2130 1535.71 2128 1524.78 C 2123 1493.98 2006 1438.35 1825 1379.74 C 1571 1298.28 1508 1279.4 1504 1283.38 C 1502 1285.37 1523 1304.24 1550 1325.1 C 1664 1411.53 1750 1601.27 1750 1767.17 C 1750 1830.75 1733 1887.38 1713 1887.38 C 1701 1887.38 1700 1881.41 1706 1860.55 C 1722 1808.89 1714 1658.89 1691 1583.39 C 1667 1503.92 1592 1390.67 1539 1351.92 C 1353 1216.82 1295 1200.92 963 1197.94 C 840 1196.95 740 1196.95 740 1198.94 C 740 1204.9 810 1237.68 914 1280.4 C 974 1305.23 1025 1332.06 1028 1339.01 C 1035 1361.86 936 1351.92 777 1312.19 C 610 1269.47 516 1255.56 476 1265.5 C 454 1270.46 467 1280.4 573 1335.04 C 766 1435.37 833 1474.11 837 1487.03 C 840 1495.97 804 1497.96 698 1496.96 C 589 1495.97 536 1499.94 475 1513.85 C 383 1535.71 381 1533.72 555 1581.4 C 616 1597.3 702 1613.19 748 1616.17 C 801 1620.15 829 1626.11 827 1633.06 C 825 1639.02 795 1652.93 760 1664.85 C 697 1686.7 688 1693.66 676 1734.39 C 670 1753.26 675 1757.24 712 1766.18 C 801 1788.03 893 1790.02 1019 1773.13 C 1174 1752.27 1322 1756.24 1363 1782.07 C 1396 1803.93 1409 1849.63 1398 1902.28 C 1388 1946.98 1346 2006.59 1324 2006.59 C 1304 2006.59 1306 2002.61 1340 1954.93 C 1375 1907.24 1380 1851.61 1352 1818.83 C 1326 1786.05 1217 1781.08 1025 1802.93 C 895 1818.83 857 1819.82 788 1809.89 C 742 1803.93 695 1795.98 683 1792.01 C 653 1784.06 653 1797.97 685 1881.41 C 711 1950.95 717 2024.47 699 2057.25 C 690 2075.13 699 2089.04 777 2168.51 C 899 2294.68 922 2326.46 922 2371.17 C 922 2393.02 916 2411.9 906 2418.85 C 892 2429.78 893 2435.74 910 2481.44 C 936 2549.98 935 2568.86 904 2588.73 C 880 2604.62 879 2609.59 885 2651.31 C 896 2724.82 915 2759.59 947 2767.54 C 962 2770.52 980 2774.49 985 2776.48 C 1007 2783.44 1053 2780.45 1098 2769.53 Z M 1967 2759.59 C 1964 2751.65 1961 2754.63 1961 2765.55 C 1960 2776.48 1963 2782.44 1966 2778.47 C 1969 2775.49 1970 2766.55 1967 2759.59 Z M 819 2757.61 C 828 2747.67 827 2742.71 816 2738.73 C 806 2734.76 802 2738.73 803 2752.64 C 805 2775.49 804 2775.49 819 2757.61 Z M 622 2729.79 C 615 2722.84 610 2721.84 610 2727.8 C 610 2741.71 622 2753.63 629 2746.68 C 631 2743.7 628 2735.75 622 2729.79 Z M 778 2714.89 C 764 2701.98 762 2701.98 757 2715.88 C 753 2725.82 756 2731.78 765 2731.78 C 773 2731.78 780 2737.74 781 2744.69 C 781 2753.63 783 2752.64 787 2743.7 C 790 2735.75 786 2722.84 778 2714.89 Z M 1873 2725.82 C 1876 2707.94 1874 2703.96 1867 2710.92 C 1854 2723.83 1849 2751.65 1860 2751.65 C 1864 2751.65 1870 2739.72 1873 2725.82 Z M 1790 2726.81 C 1790 2714.89 1771 2714.89 1767 2726.81 C 1763 2735.75 1766 2738.73 1776 2734.76 C 1783 2731.78 1790 2727.8 1790 2726.81 Z M 1954 2720.85 C 1951 2715.88 1944 2713.9 1939 2717.87 C 1934 2720.85 1932 2727.8 1936 2732.77 C 1939 2737.74 1946 2739.72 1951 2735.75 C 1956 2732.77 1958 2725.82 1954 2720.85 Z M 858 2670.19 C 845 2608.59 856 2562.9 885 2562.9 C 901 2562.9 904 2541.04 891 2509.25 C 878 2476.47 724 2431.77 603 2426.8 C 545 2423.82 500 2425.81 500 2430.77 C 500 2435.74 530 2464.55 568 2496.34 C 605 2527.13 666 2579.78 704 2612.57 C 773 2672.17 860 2734.76 867 2728.8 C 868 2726.81 864 2699.99 858 2670.19 Z M 1905 2721.84 C 1908 2716.88 1906 2711.91 1901 2711.91 C 1895 2711.91 1890 2716.88 1890 2721.84 C 1890 2727.8 1892 2731.78 1894 2731.78 C 1897 2731.78 1902 2727.8 1905 2721.84 Z M 729 2698 C 738 2687.07 738 2682.11 729 2676.15 C 721 2672.17 720 2673.17 724 2680.12 C 728 2687.07 726 2692.04 721 2692.04 C 715 2692.04 710 2697.01 710 2701.98 C 710 2715.88 715 2714.89 729 2698 Z M 1639 2669.19 C 1639 2660.25 1637 2661.25 1633 2670.19 C 1631 2676.15 1623 2679.13 1618 2676.15 C 1611 2672.17 1610 2674.16 1614 2681.11 C 1623 2694.03 1640 2686.08 1639 2669.19 Z M 1570 2631.44 C 1570 2627.47 1563 2621.51 1554 2618.53 C 1540 2613.56 1539 2614.55 1550 2627.47 C 1557 2635.42 1558 2642.37 1553 2642.37 C 1548 2642.37 1543 2649.32 1543 2658.26 C 1543 2672.17 1545 2672.17 1557 2656.28 C 1564 2646.34 1570 2635.42 1570 2631.44 Z M 1774 2657.27 C 1770 2649.32 1763 2645.35 1758 2648.33 C 1752 2652.3 1753 2658.26 1761 2663.23 C 1780 2675.15 1780 2674.16 1774 2657.27 Z M 1450 2642.37 C 1450 2637.4 1448 2632.44 1446 2632.44 C 1443 2632.44 1438 2637.4 1435 2642.37 C 1432 2648.33 1434 2652.3 1439 2652.3 C 1445 2652.3 1450 2648.33 1450 2642.37 Z M 1407 2590.71 C 1404 2582.77 1401 2585.75 1401 2596.67 C 1400 2607.6 1403 2613.56 1406 2609.59 C 1409 2606.61 1410 2597.67 1407 2590.71 Z M 1670 2568.86 C 1670 2565.88 1666 2560.91 1660 2557.93 C 1655 2554.95 1650 2556.94 1650 2561.9 C 1650 2567.86 1655 2572.83 1660 2572.83 C 1666 2572.83 1670 2570.84 1670 2568.86 Z M 1527 2532.1 C 1512 2523.16 1511 2519.19 1522 2505.28 C 1532 2493.36 1532 2491.37 1523 2497.33 C 1514 2502.3 1510 2498.32 1509 2486.4 C 1509 2470.51 1508 2470.51 1500 2488.39 C 1488 2516.21 1488 2535.08 1500 2528.13 C 1506 2525.15 1510 2527.13 1510 2532.1 C 1510 2538.06 1518 2543.03 1528 2543.03 C 1544 2542.04 1544 2542.04 1527 2532.1 Z M 337 2511.24 C 334 2503.29 331 2506.27 331 2517.2 C 330 2528.13 333 2534.09 336 2530.11 C 339 2527.13 340 2518.19 337 2511.24 Z M 1460 2387.06 C 1460 2311.56 1463 2232.09 1467 2211.23 L 1473 2172.49 L 1444 2181.43 C 1428 2186.39 1378 2190.37 1333 2190.37 L 1251 2190.37 L 1244 2273.81 C 1238 2345.34 1241 2368.19 1259 2423.82 C 1270 2460.58 1280 2497.33 1280 2506.27 C 1280 2521.17 1292 2523.16 1370 2523.16 L 1460 2523.16 L 1460 2387.06 Z M 370 2473.49 C 370 2468.52 366 2463.56 360 2463.56 C 355 2463.56 350 2468.52 350 2473.49 C 350 2479.45 355 2483.42 360 2483.42 C 366 2483.42 370 2479.45 370 2473.49 Z M 850 2433.75 C 842 2427.79 824 2424.81 810 2424.81 C 788 2424.81 789 2426.8 820 2437.73 C 857 2451.64 874 2448.66 850 2433.75 Z M 887 2364.21 C 889 2338.39 887 2333.42 880 2344.35 C 872 2356.27 870 2356.27 870 2345.34 C 870 2337.39 862 2325.47 853 2318.52 C 836 2305.6 836 2304.61 855 2310.57 C 874 2315.54 874 2315.54 858 2301.63 C 848 2293.68 840 2283.75 840 2279.77 C 840 2275.8 817 2248.98 788 2219.18 C 751 2181.43 734 2169.51 728 2178.45 C 714 2199.31 720 2381.1 735 2381.1 C 742 2381.1 745 2373.16 742 2362.23 C 740 2352.29 743 2338.39 749 2331.43 C 755 2323.48 758 2314.54 755 2310.57 C 752 2307.59 755 2308.58 761 2313.55 C 769 2319.51 769 2328.45 760 2344.35 C 750 2363.22 751 2366.2 769 2371.17 C 780 2374.15 787 2381.1 783 2387.06 C 779 2393.02 783 2395.01 793 2391.04 C 802 2388.06 812 2389.05 816 2395.01 C 819 2400.97 836 2403.95 853 2401.96 C 881 2398.98 885 2395.01 887 2364.21 Z M 1212 2276.79 C 1205 2274.81 1200 2268.85 1200 2263.88 C 1200 2257.92 1204 2255.93 1208 2258.91 C 1213 2261.89 1217 2250.97 1217 2235.07 C 1217 2208.25 1209 2200.3 1187 2204.27 C 1182 2205.27 1182 2200.3 1186 2194.34 C 1193 2182.42 1174 2165.53 1152 2165.53 C 1137 2165.53 1154 2202.29 1179 2223.15 C 1188 2231.1 1189 2234.08 1182 2230.1 C 1174 2226.13 1175 2235.07 1186 2258.91 C 1196 2277.79 1208 2290.7 1214 2287.72 C 1220 2283.75 1220 2279.77 1212 2276.79 Z M 629 2145.66 C 641 2123.81 650 2101.95 648 2096.99 C 646 2092.02 623 2065.2 597 2037.38 L 549 1986.72 L 509 2006.59 C 487 2018.51 451 2043.34 429 2063.21 L 389 2098.97 L 422 2112.88 C 440 2120.83 482 2135.73 515 2146.66 C 548 2158.58 579 2171.49 585 2176.46 C 600 2191.36 605 2187.39 629 2145.66 Z M 2009 2113.87 C 2008 2100.96 2011 2035.39 2015 1966.85 C 2022 1859.56 2020 1837.7 2006 1809.89 C 1997 1792.01 1986 1778.1 1982 1778.1 C 1970 1778.1 1904 1839.69 1860 1891.35 C 1817 1942.01 1818 1961.88 1863 1968.84 C 1879 1970.82 1884 1977.78 1882 1991.68 C 1880 2002.61 1881 2008.57 1885 2004.6 C 1894 1995.66 1936 2038.37 1932 2053.28 C 1930 2061.22 1935 2063.21 1944 2060.23 C 1955 2056.26 1957 2060.23 1953 2077.12 C 1948 2095 1950 2097.98 1963 2093.01 C 1976 2088.05 1980 2092.02 1980 2106.92 C 1980 2117.85 1985 2123.81 1990 2120.83 C 1996 2117.85 2000 2119.83 2000 2124.8 C 2000 2130.76 2002 2135.73 2005 2135.73 C 2008 2135.73 2009 2125.8 2009 2113.87 Z M 685 1976.78 L 679 1948.97 L 629 1964.86 L 580 1980.76 L 622 2023.47 L 665 2067.18 L 678 2035.39 C 685 2018.51 688 1991.68 685 1976.78 Z M 589 1779.09 C 600 1772.14 595 1766.18 565 1754.26 C 520 1735.38 524 1728.43 597 1689.68 C 669 1650.94 665 1636.04 578 1616.17 C 538 1606.24 494 1596.3 481 1592.33 L 457 1586.37 L 462 1669.82 C 465 1715.51 474 1770.15 483 1791.01 L 499 1828.76 L 537 1808.89 C 558 1797.97 581 1784.06 589 1779.09 Z M 632 1802.93 C 628 1778.1 627 1778.1 608 1794.99 C 590 1810.88 590 1812.87 607 1818.83 C 636 1830.75 638 1828.76 632 1802.93 Z M 620 1728.43 C 620 1723.46 616 1718.49 610 1718.49 C 605 1718.49 600 1723.46 600 1728.43 C 600 1734.39 605 1738.36 610 1738.36 C 616 1738.36 620 1734.39 620 1728.43 Z M 378 1642.99 C 428 1636.04 430 1635.05 430 1605.24 C 430 1577.43 426 1573.45 383 1559.55 C 357 1551.6 335 1539.68 333 1533.72 C 331 1527.76 356 1514.84 390 1505.9 C 440 1491.99 453 1483.06 466 1457.23 C 475 1439.34 498 1409.54 517 1388.68 L 552 1352.92 L 489 1323.12 C 453 1307.22 414 1291.33 402 1287.35 C 371 1277.42 379 1259.54 421 1244.63 C 463 1229.73 527 1228.74 603 1241.65 C 652 1249.6 665 1247.62 690 1232.71 L 720 1214.83 L 695 1203.9 C 661 1188.01 664 1172.12 700 1172.12 C 729 1172.12 730 1170.13 730 1126.42 C 730 1083.7 728 1080.72 708 1085.69 C 695 1088.67 595 1101.58 484 1113.5 L 283 1136.35 L 277 1315.17 C 273 1412.52 270 1527.76 270 1571.47 L 270 1648.95 L 298 1648.95 C 313 1648.95 349 1645.97 378 1642.99 Z M 2194 1236.69 C 2203 1100.59 2213 960.518 2217 927.735 L 2222 867.137 L 2170 875.084 C 2141 879.058 2116 885.018 2114 886.012 C 2112 887.999 2103 1014.16 2094 1167.15 C 2081 1371.79 2079 1445.31 2088 1448.29 C 2094 1450.27 2114 1462.19 2132 1474.11 C 2150 1487.03 2168 1493.98 2171 1491 C 2174 1488.02 2184 1373.78 2194 1236.69 Z M 666 1465.17 L 758 1465.17 L 667 1417.49 L 577 1370.8 L 547 1397.62 C 531 1413.52 512 1437.36 504 1453.25 L 489 1480.07 L 532 1473.12 C 556 1468.15 616 1465.17 666 1465.17 Z M 2053 1358.88 C 2064 1249.6 2083 893.959 2079 889.986 C 2073 885.018 1532 958.531 1525 965.485 C 1522 968.465 1518 1035.02 1517 1112.51 L 1515 1254.57 L 1545 1263.51 C 1562 1268.48 1631 1287.35 1700 1306.23 C 1769 1324.11 1870 1356.89 1925 1378.75 C 1980 1400.6 2030 1418.48 2036 1419.48 C 2043 1420.47 2050 1394.64 2053 1358.88 Z M 827 1276.42 C 769 1251.59 743 1244.63 727 1251.59 C 701 1260.53 703 1262.52 805 1290.33 C 908 1319.14 915 1315.17 827 1276.42 Z M 1484 1190 C 1487 1161.19 1489 1117.48 1489 1092.64 L 1488 1047.94 L 1460 1107.54 C 1410 1211.85 1408 1221.79 1433 1231.72 C 1472 1246.62 1477 1242.65 1484 1190 Z M 880 1165.16 C 879 1147.28 862 1134.37 816 1113.5 C 789 1102.58 766 1092.64 764 1092.64 C 762 1092.64 760 1110.52 760 1132.38 L 760 1172.12 L 820 1172.12 C 853 1172.12 880 1169.13 880 1165.16 Z" style=""></path>
            <g id="Layer_1" style="" transform="matrix(0.436911, 0, 0, 0.434035, 1209.373535, 313.53064)">
                <g id="_x34_0Hha8.tif" transform="matrix(5.632199, 0, 0, -5.632199, -2722.173828, 1852.279053)">
                    <g>
                        <path class="st0" d="M903.38,171.59c1.66,0.96,3.46,0.33,5.19,0.43c2.39,0.14,3.67,1.82,3.21,4.1c-1.49,7.38-2.82,14.8-4.35,22.17    c-0.53,2.56-0.8,5.18-1.74,7.66c-0.77,2.02-2.08,3.26-4.26,3.2c-9.42-0.25-18.81,0.72-28.23,0.5c-5.74-0.14-11.49-0.05-17.23-0.02    c-5.1,0.03-10.19,0.67-15.31,0.48c-1.91-0.07-3.98,2.11-4.39,4.28c-2.06,10.83-4.46,21.59-6.76,32.38    c-3.02,14.15-5.72,28.36-8.69,42.51c-2.76,13.14-5.78,26.23-8.55,39.36c-2.38,11.29-4.58,22.63-6.84,33.95    c-0.45,2.27,1.08,4.15,3.36,4.16c4.23,0.02,8.47-0.19,12.69,0.04c13.62,0.74,27.25,0.11,40.86,0.52    c3.89,0.12,7.79,0.23,11.68,0.36c1.87,0.06,4.05,1.97,4.4,3.8c1.83,9.63,3.65,19.26,5.48,28.88c0.37,1.96-1.14,4.03-3.12,3.96    c-4.42-0.14-8.87,0.52-13.27-0.42c-0.29-0.06-0.6-0.01-0.91-0.01c-22.86,0.31-45.72-0.35-68.58-0.61    c-12.88-0.15-25.78,0.13-38.65-0.38c-4.93-0.2-9.84-0.51-14.77-0.13c-0.69,0.05-0.81-0.36-0.66-1.17    c0.82-4.5,1.32-9.05,1.69-13.62c0.32-3.93,1.2-7.82,1.99-11.69c0.62-3.01,0.53-6.13,1.51-9.09c0.46-1.38,0.87-1.83,2.47-1.42    c2.95,0.77,6,0.89,9.03,0.11c0.7-0.18,1.52-0.12,2.25,0.02c2.65,0.54,4.25-0.46,4.9-3.17c2.41-10.01,4.32-20.12,6.36-30.21    c2.2-10.88,4.32-21.78,6.86-32.59c1.44-6.14,1.99-12.51,4.67-18.36c1.21-2.64,0.52-5.68,1.1-8.52c1.92-9.3,3.58-18.66,5.51-27.96    c1.83-8.78,3.9-17.52,5.79-26.29c0.34-1.56,0.51-3.16,0.93-4.72c0.36-1.36-1.87-3.55-3.54-3.56c-5.59-0.03-11.2-0.32-16.77,0.05    c-11.98,0.81-23.96,0.13-35.94,0.37c-1.19,0.02-2.4-0.03-3.48,0.5c-1.66,0.81-2.03-0.03-1.88-1.41c0.36-3.5,1.26-6.9,1.99-10.33    c1.46-6.86,2.9-13.72,4.34-20.58c0.18-0.86,0.18-1.77,0.5-2.57c0.37-0.94,0.92-1.83,1.52-2.65c0.96-1.3,1.63,0.29,2.46,0.34    c0.6,0.03,1.21,0.03,1.81,0.03c6.5,0,13-0.03,19.5,0.01c3.85,0.03,7.7,0.35,11.57,0.02c2.45-0.21,4.89,0.83,7.37,0.4    c6.39-1.1,12.84-0.69,19.26-1c2.37-0.12,4.77-0.32,7.15-0.32c16.4-0.03,32.8,0.14,49.19-0.1c6-0.09,12.04-0.01,18.02-0.48    c4.46-0.35,8.96,0.07,13.38-0.79c0.31-0.06,0.58-0.09,0.65-0.46C898.54,171.59,900.96,171.59,903.38,171.59z" fill="#e6cec2" style="fill: rgb(230,206,194);"></path>
                        <path class="st0" d="M40,171.59c1.36,0.8,2.98,0.85,4.38,0.82c5.35-0.11,10.66,0.44,15.99,0.6c20.74,0.62,41.49,0.11,62.23,0.48    c6.18,0.11,12.38,0.12,18.55,0.42c2.94,0.14,5.85,1.18,8.84,0.82c3.64-0.44,7.3,0.1,10.88-0.12c9.8-0.59,19.6-0.52,29.36-0.2    c13.19,0.44,26.39-0.13,39.56,0.45c7.08,0.31,14.14,0.13,21.21,0.33c2.72,0.07,5.22,1.89,5.72,4.49c1.7,8.76,3.36,17.53,4.99,26.3    c0.09,0.46,0.33,0.83,0.43,1.24c0.61,2.52-1.03,4.63-3.66,4.64c-7.78,0.03-15.59,0.38-23.35-0.08    c-11.46-0.68-22.91,0.09-34.35-0.41c-13.64-0.61-27.3,0.08-40.92-0.51c-11.46-0.49-22.92,0.18-34.35-0.41    c-12.89-0.67-25.79,0.16-38.66-0.48c-10.48-0.52-20.94-0.17-31.41-0.33c-6.99-0.11-13.97-0.77-20.97-0.5    c-1.98,0.07-4.1-1.99-4.46-3.95c-1.69-9.05-3.27-18.12-5.42-27.07c-0.16-0.67,0.46-1.52-0.47-2c0-0.75,0-1.51,0-2.26    c1.44-1.84,3.4-1.96,5.53-1.86c1.01,0.05,2.18,0.54,3.09-0.41C35.16,171.59,37.58,171.59,40,171.59z" fill="#e6cec2" style="fill: rgb(230,206,194);"></path>
                        <path class="st1" d="M478.7,403.43c-3.33,0-6.68-0.26-9.97,0.06c-4.62,0.46-7.19-1.7-9.34-5.51    c-7.1-12.55-14.47-24.95-21.69-37.44c-5.94-10.28-11.79-20.6-17.71-30.89c-2.69-4.67-5.44-9.31-8.15-13.97    c-1.7-2.94-3.54-3.35-6.49-1.6c-10.78,6.4-21.6,12.74-32.37,19.16c-10.27,6.13-20.46,12.38-30.75,18.47    c-3.41,2.02-3.44,5.33-3.87,8.58c-0.71,5.4-1.46,10.8-2.17,16.2c-0.36,2.78-0.67,5.57-1,8.36c-0.6,5.05-1.18,10.11-1.83,15.16    c-0.21,1.62-2.37,3.4-4.05,3.41c-9.22,0.02-18.44,0.03-27.66-0.01c-2.48-0.01-4.26-1.6-5.38-3.49    c-5.37-9.09-10.55-18.29-15.84-27.43c-5.88-10.15-11.83-20.25-17.7-30.4c-4.85-8.38-9.59-16.83-14.44-25.21    c-5.87-10.15-11.83-20.25-17.7-30.4c-2.73-4.73-5.32-9.53-8.03-14.28c-1.48-2.59-3.65-4.17-6.76-4.16    c-5.21,0-10.44-0.19-15.64,0.07c-3.51,0.17-7.05,0.74-10.48,1.53c-3.77,0.86-5.11,3.29-5.51,8.2c-0.39,4.78-0.99,9.53-1.74,14.27    c-0.66,4.16-0.93,8.37-1.42,12.55c-0.21,1.75-0.59,3.47-0.78,5.22c-0.18,1.63,0.17,3.27,0.96,4.64c3.45,6,7.01,11.93,10.56,17.87    c4.44,7.44,8.88,14.89,13.34,22.32c6.87,11.43,13.77,22.84,20.64,34.27c1.91,3.18,3.8,6.38,5.64,9.61    c1.74,3.05,0.71,4.83-2.7,4.84c-7.25,0-14.52-0.17-21.76,0.07c-3.74,0.12-6.03-1.57-7.72-4.52c-6.53-11.36-12.91-22.81-19.56-34.1    c-5.03-8.54-10.47-16.84-15.59-25.33c-2.67-4.43-4.68-9.28-7.94-13.33c-3.72-4.62-5.79-9.97-7.96-15.4    c-1.82-4.55-4.8-8.64-7.27-12.93c-3.24-5.61-6.4-11.27-9.75-16.82c-2.22-3.68-3.95-7.67-6.77-10.98c-1.25-1.47-2.9-2.12-4.92-2.09    c-5.67,0.08-11.34-0.11-17,0.08c-3.43,0.12-6.85,0.74-10.16,1.75c-2.71,0.83-3.84,2.71-4.24,5.43c-0.8,5.54-1.19,11.13-2.14,16.65    c-0.7,4.07-0.94,8.22-1.45,12.32c-0.53,4.31-1.15,8.61-1.71,12.92c-0.36,2.78-0.66,5.57-1.01,8.35    c-0.59,4.68-1.23,9.35-1.79,14.04c-0.51,4.33-0.87,8.68-1.4,13.01c-0.52,4.24-1.21,8.45-1.75,12.68    c-0.52,4.03-0.87,8.08-1.43,12.1c-0.75,5.47-1.12,10.99-2.17,16.42c-0.31,1.58-0.21,3.23-0.47,4.85    c-0.49,3.06-2.19,4.78-5.29,4.78c-7.48,0-14.96,0.01-22.45,0c-2.76,0-4.33-2.32-3.81-5.09c0.54-2.9,0.72-5.86,1.1-8.79    c0.57-4.38,1.27-8.75,1.72-13.14c0.28-2.72,0.68-5.42,0.96-8.14c0.49-4.77,1.09-9.52,1.8-14.26c0.62-4.16,0.81-8.39,1.44-12.55    c0.67-4.37,0.94-8.78,1.7-13.15c0.72-4.14,0.93-8.37,1.45-12.55c0.53-4.24,1.19-8.45,1.73-12.69c0.38-3.01,0.61-6.03,0.99-9.04    c0.55-4.38,1.19-8.76,1.74-13.14c0.51-4.03,0.98-8.06,1.42-12.1c0.5-4.62,1.13-9.21,1.73-13.82c0.51-3.88,1.29-7.77,1.35-11.65    c0.09-5.48,3.28-8.27,7.7-10.08c5.81-2.39,11.88-3.51,18.22-3.83c3.37-0.17,6.7,0.36,9.98,0.06c7.75-0.72,15.51,0,23.25-0.42    c4.01-0.22,7.49,0.83,10.33,3.5c6.17,5.81,12.21,11.77,15.85,19.62c1.62,3.49,3,7.08,4.6,10.58c0.43,0.93,0.79,2.29,2.26,2.09    c1.47-0.2,2.1-1.48,2.16-2.68c0.14-2.82,0.64-5.58,0.98-8.37c0.58-4.67,1.12-9.35,1.84-14c0.35-2.23,2.21-3.69,3.92-4.67    c5.03-2.91,10.55-4.44,16.36-5.16c5.26-0.65,10.54,0.04,15.76-0.46c7.75-0.74,15.51-0.05,23.25-0.44    c4.01-0.21,7.24,1.33,9.98,3.88c6.54,6.07,12.73,12.51,16.06,20.99c4.32,11,11.08,20.61,17.06,30.67    c7.74,13.03,15.42,26.08,23.19,39.09c6.72,11.26,13.55,22.46,20.23,33.74c0.64,1.09,1.33,1.34,2.31,1.15    c0.96-0.19,1.38-0.88,1.51-1.93c0.8-6.22,1.59-12.43,2.28-18.66c0.88-7.83,2.11-15.62,3.11-23.43c0.55-4.33,0.86-8.68,1.4-13.01    c0.68-5.4,1.53-10.79,2.22-16.19c0.54-4.25,0.89-8.53,1.41-12.79c0.52-4.31,1.17-8.61,1.72-12.92c0.37-2.93,0.64-5.88,1-8.81    c0.44-3.66,0.68-7.36,1.48-10.94c0.58-2.61,2.79-4.21,5.15-5.45c4.72-2.48,9.73-3.79,15.01-4.51c3.31-0.45,6.59-0.18,9.87-0.38    c9.63-0.57,19.27-0.3,28.91-0.52c3.97-0.09,7.26,1.11,10.03,3.69c6.59,6.13,13.01,12.49,16.48,21.02    c6.29,15.49,16.13,28.95,24.44,43.29c5.22,9.01,10.64,17.92,15.96,26.88c6.09,10.27,12.17,20.55,18.27,30.82    c0.54,0.91,1.36,1.33,2.47,1.17c1.15-0.17,1.42-1.15,1.53-1.93c0.55-4.02,0.91-8.07,1.42-12.1c0.54-4.23,1.24-8.45,1.77-12.68    c0.53-4.18,0.89-8.38,1.4-12.56c0.54-4.39,1.3-8.75,1.72-13.14c0.38-3.97,0.93-7.92,1.43-11.87c0.58-4.53,1.12-9.06,1.72-13.59    c0.38-2.85,0.64-5.73,1-8.59c0.57-4.53,1.05-9.07,1.76-13.59c0.67-4.31,1.12-8.66,1.37-13.01c0.22-3.79,2.02-6.42,5.19-8.15    c4.92-2.7,10.21-4.19,15.83-4.77c2.09-0.22,4.16-0.32,6.24-0.34c10.77-0.14,21.53-0.58,32.31-0.55c3.96,0.01,7.24,1.14,10.03,3.71    c6.69,6.15,12.95,12.7,16.56,21.23c1.93,4.55,3.64,9.18,6.4,13.33c0.59,0.88,1.31,1.43,2.42,1.21c1.11-0.21,1.46-0.92,1.69-2.01    c1.1-5.3,1.08-10.59,0.45-15.95c-0.63-5.41-1.71-10.72-4.19-15.55c-3.13-6.11-7.54-10.85-13.99-14.07    c-5.02-2.51-10.06-4.47-15.46-5.6c-3.89-0.81-7.84-1.38-11.84-1.63c-9.1-0.55-18.21-0.4-27.32-0.43c-0.6,0-1.4-0.2-1.77,0.1    c-2.11,1.73-4.49,0.78-6.75,0.77c-2.37-0.01-3.19-1.37-3.11-3.79c0.2-5.85,2.03-11.43,2.7-17.18c0.51-4.4,0.72-8.84,1.42-13.22    c0.39-2.44,2.37-4.25,4.86-4.26c3.93-0.02,7.87-0.16,11.79,0.03c7,0.33,14,0.76,20.98,1.38c2.87,0.26,5.91,0.24,8.58,1    c6.34,1.79,12.83,3.12,18.92,5.79c9.02,3.95,16.67,9.75,23.26,16.94c4.32,4.71,7.97,9.95,10.9,15.64c0.92,1.8,3.53,2.86,3.43,4.44    c-0.12,1.97,0.39,3.47,0.98,5.18c2.16,6.29,3.86,12.66,4.79,19.29c0.96,6.87,1.15,13.76,0.73,20.61    c-0.74,11.95-2.51,23.78-8.52,34.44c-2.22,3.95-1.1,7.15,1.04,10.58c4.59,7.36,9.01,14.82,13.46,22.26    c3.37,5.62,6.03,11.82,10.2,16.76c4.19,4.97,5.71,11.15,9.39,16.28c3.68,5.14,6.62,10.8,9.89,16.24    c3.12,5.18,6.26,10.35,9.35,15.54c0.91,1.53,2,3.46,0.03,4.66c-1.62,0.99-3.72,1.9-5.71,1.29c-1.24-0.38-2.42-0.6-3.68-0.6    c-4.61,0-9.24-0.27-13.82,0.08c-4.62,0.35-7.2-1.7-9.35-5.52c-6.48-11.48-13.25-22.8-19.84-34.22    c-5.5-9.52-10.91-19.09-16.38-28.63c-1.05-1.83-2.15-3.64-3.31-5.41c-1.51-2.31-3.21-2.59-5.53-1c-4.34,2.97-8.8,5.77-13.56,8    c-8.65,4.07-17.68,7.11-27.02,9.14c-1.87,0.41-3.84,0.42-5.77,0.49c-8.16,0.29-16.3,1.22-24.49,0.96    c-2.19-0.07-3.94,2.33-4.21,5.1c-0.54,5.72-1.38,11.41-2.22,17.09c-0.62,4.16-0.89,8.37-1.42,12.54    c-0.53,4.23-1.28,8.44-1.73,12.68c-0.16,1.54-0.33,3.09-0.5,4.63c-0.26,2.26-2.06,4.05-4.34,4.06    C487.17,403.45,482.93,403.43,478.7,403.43z M533.15,268.04c-4.63-0.4-10.46,0.28-16.26,1.35c-2.68,0.5-5.3,2.53-5.66,4.86    c-0.47,2.99-0.66,6.02-1,9.03c-0.46,4.18-0.9,8.37-1.43,12.54c-0.53,4.15-1.22,8.29-1.71,12.45c-0.2,1.72,1.84,3.63,3.66,3.69    c3.07,0.09,6.1-0.49,9.17-0.57c1.59-0.04,3.27-0.1,4.87-0.38c5.05-0.89,10.16-1.41,15.16-2.65c7.18-1.79,14.09-4.21,20.21-8.47    c2.28-1.59,2.84-3.82,1.71-5.77c-4.36-7.48-8.67-14.99-13.12-22.42c-1.38-2.31-3.41-3.82-6.39-3.68    C539.72,268.14,537.08,268.04,533.15,268.04z M370.96,268.04c-4.71-0.36-10.54,0.24-16.34,1.35c-3.14,0.6-5.92,2.99-5.9,6.58    c0.01,3-0.68,6-0.96,9.02c-0.4,4.32-1.11,8.61-1.68,12.91c-0.41,3.06-0.88,6.12-1.18,9.2c-0.24,2.51-0.86,4.99-0.63,7.53    c0.14,1.57,1.78,2.59,3.07,1.86c3.48-1.97,6.94-4,10.41-5.99c6.25-3.59,12.5-7.17,18.74-10.77c5.49-3.16,10.97-6.32,16.43-9.54    c1.54-0.91,2.28-3.49,1.47-4.91c-2.67-4.67-5.25-9.4-8.15-13.92c-1.37-2.14-3.48-3.56-6.38-3.36    C377.3,268.18,374.73,268.04,370.96,268.04z" fill="#e6cec2" style="fill: rgb(230,206,194);"></path>
                        <path class="st0" d="M715.83,364.04c5.49,0,9.95,0.12,14.41-0.04c3.79-0.13,7.57-0.52,11.34-0.89c1.84-0.18,1.99,0.67,1.63,2.1    c-0.89,3.56-1.52,7.19-2.67,10.66c-1.69,5.1-2.5,10.37-3,15.64c-0.23,2.49-0.03,5.04-0.55,7.55c-0.43,2.05-2.41,3.91-4.51,3.92    c-6.77,0.03-13.54-0.27-20.29-0.56c-11.46-0.5-22.86-1.89-33.79-5.76c-8.23-2.91-15.64-7.13-22.23-12.93    c-8.67-7.64-14.85-16.9-19.49-27.39c-2.73-6.17-4.47-12.54-5.9-19.1c-1.95-8.96-1.47-18.01-1.14-26.98    c0.31-8.61,2.04-17.11,5.21-25.26c2.81-7.21,6.59-13.76,11.34-19.87c5.85-7.53,12.99-13.66,20.86-18.81    c9.64-6.31,20.05-11.21,31-14.96c5.71-1.96,11.48-3.73,17.32-5.22c3.33-0.85,6.82-1.19,10.26-1.53    c7.02-0.69,14.05-1.37,21.09-1.77c3.5-0.2,7.02-0.07,10.55,0.29c4.26,0.42,8.62-0.1,12.91,0.17c3.11,0.2,6.12,0.24,9.18-0.47    c1.88-0.44,2.8,0.93,2.25,2.72c-0.67,2.17-1.34,4.33-1.13,6.71c0.44,5.03-1.56,9.64-2.85,14.35c-0.74,2.69-0.87,5.48-1.66,8.13    c-1.01,3.37-2.29,4.27-5.74,4.27c-5.06,0-10.13,0.04-15.19-0.01c-4.88-0.05-9.77,0.25-14.62,0.6c-7.09,0.5-14.16,1.53-21.19,2.87    c-4.53,0.86-9.12,1.68-13.45,3.04c-7.52,2.36-14.85,5.29-21.47,9.91c-3.88,2.72-7.45,5.65-10.66,9.05    c-3.74,3.96-6.55,8.52-9.07,13.39c-3.09,5.98-4.01,12.38-5.2,18.81c-0.5,2.69,0.15,5.33-0.06,7.91c-0.41,5.04,0.95,9.66,2.39,14.3    c3.07,9.86,9.78,16.26,19.17,20.22c6.2,2.62,12.68,3.76,19.32,4.58C705.76,364.34,711.31,363.69,715.83,364.04z" fill="#e6cec2" style="fill: rgb(230,206,194);"></path>
                    </g>
                </g>
            </g>
        </g>
        <path d="M1102 2855 c-21 -11 -21 -12 -4 -28 10 -10 23 -17 28 -17 5 0 2 5 -6
11 -11 8 -12 12 -2 16 6 2 9 9 6 15 -5 7 2 9 20 4 14 -3 26 -3 26 2 0 12 -43
11 -68 -3z"></path>
        <path d="M1143 2825 c0 -7 6 -11 14 -8 7 3 13 6 13 8 0 2 -6 5 -13 8 -8 3 -14
-1 -14 -8z"></path>
        <path d="M1705 2770 c3 -5 10 -10 16 -10 5 0 9 5 9 10 0 6 -7 10 -16 10 -8 0
-12 -4 -9 -10z"></path>
        <path d="M1676 2761 c-3 -5 1 -11 9 -14 9 -4 12 -1 8 9 -6 16 -10 17 -17 5z"></path>
        <path d="M1577 2734 c-4 -4 -7 -14 -7 -23 0 -14 2 -14 10 -1 8 12 10 12 11 -5
0 -11 3 -15 5 -8 7 15 -10 46 -19 37z"></path>
        <path d="M1690 2710 c0 -13 5 -18 15 -14 8 4 15 10 15 14 0 4 -7 10 -15 14
-10 4 -15 -1 -15 -14z"></path>
        <path d="M999 2699 c-11 -11 -19 -30 -17 -42 4 -29 22 -28 26 1 4 27 32 44 53
31 11 -8 9 -13 -13 -30 -29 -21 -36 -43 -18 -54 19 -12 48 5 60 35 26 62 -43
107 -91 59z"></path>
        <path d="M776 2645 c-11 -8 -16 -20 -12 -30 5 -15 8 -14 31 2 26 19 33 43 13
43 -7 0 -21 -7 -32 -15z"></path>
        <path d="M795 2290 c3 -5 8 -10 11 -10 2 0 4 5 4 10 0 6 -5 10 -11 10 -5 0 -7
-4 -4 -10z"></path>
        <path d="M1843 1942 c-7 -4 -9 -13 -5 -19 6 -9 11 -6 20 7 13 21 6 26 -15 12z"></path>
        <path d="M490 2770 c-12 -8 -12 -10 3 -16 10 -4 24 -1 30 5 9 9 8 11 -7 5 -13
-5 -17 -4 -12 4 9 14 6 15 -14 2z"></path>
        <path d="M422 2747 c-7 -8 -6 -18 4 -31 7 -10 12 -22 9 -25 -2 -4 5 -12 16
-19 10 -7 19 -8 19 -3 0 5 -6 12 -12 14 -7 3 -3 6 8 6 33 1 23 50 -10 51 -4 0
-6 -10 -3 -22 6 -22 6 -22 -8 -4 -11 14 -12 22 -4 27 7 4 8 9 1 13 -5 3 -14 0
-20 -7z"></path>
        <path d="M550 2740 c0 -5 5 -10 10 -10 6 0 10 5 10 10 0 6 -4 10 -10 10 -5 0
-10 -4 -10 -10z"></path>
        <path d="M413 2614 c0 -9 6 -13 14 -9 8 3 17 5 19 5 14 0 1 16 -14 17 -10 1
-19 -5 -19 -13z"></path>
        <path d="M386 2485 c4 -8 13 -15 21 -15 12 0 12 2 -1 15 -8 8 -17 15 -20 15
-3 0 -3 -7 0 -15z"></path>
        <path d="M670 2281 c0 -7 -4 -10 -9 -6 -5 3 -12 1 -15 -4 -4 -5 -2 -12 3 -15
11 -7 36 22 27 31 -3 3 -6 1 -6 -6z"></path>
        <path d="M237 2227 c-7 -20 2 -30 56 -59 57 -32 63 -17 16 37 -32 36 -63 45
-72 22z"></path>
        <path d="M122 2139 c-35 -13 -25 -45 13 -42 47 3 95 15 95 23 0 9 -55 30 -74
29 -6 0 -21 -4 -34 -10z"></path>
    </g>
</svg>