<?xml version="1.0" standalone="no"?>
<!DOCTYPE svg PUBLIC "-//W3C//DTD SVG 20010904//EN"
 "http://www.w3.org/TR/2001/REC-SVG-20010904/DTD/svg10.dtd">
<svg version="1.0" xmlns="http://www.w3.org/2000/svg"
 width="231.000000pt" height="300.000000pt" viewBox="0 0 231.000000 300.000000"
 preserveAspectRatio="xMidYMid meet">

<g transform="translate(0.000000,300.000000) scale(0.100000,-0.100000)"
fill="#ffffff" stroke="none">
<path d="M50 2987 c0 -12 19 -17 95 -22 l95 -7 0 -355 c0 -279 3 -354 13 -351
6 3 13 17 15 32 3 22 8 27 23 23 12 -3 19 0 19 9 0 7 6 11 13 8 10 -4 12 3 9
26 -2 17 0 30 4 28 13 -3 57 23 50 30 -4 3 -15 6 -26 7 -15 1 -17 -2 -9 -11 6
-7 6 -14 1 -18 -6 -3 -13 1 -16 10 -9 23 -24 8 -19 -19 3 -14 -2 -29 -11 -36
-12 -10 -16 -10 -16 -2 0 7 -4 9 -10 6 -6 -3 -10 -1 -10 5 0 7 7 10 15 7 22
-9 28 10 8 22 -17 10 -17 12 0 25 9 7 17 21 17 31 0 10 3 16 6 13 3 -4 18 -3
34 2 18 5 32 4 41 -3 7 -7 2 3 -11 22 -15 22 -20 36 -13 38 7 3 9 11 6 19 -3
7 -10 11 -17 7 -6 -4 -5 1 3 11 14 17 16 16 33 -6 17 -21 19 -21 16 -3 -2 13
3 20 14 20 9 0 20 4 25 8 4 5 4 7 -2 6 -5 -2 -19 0 -31 4 -16 6 -20 14 -16 32
2 14 8 28 13 31 5 3 9 10 9 15 0 6 -4 7 -10 4 -6 -3 -10 4 -10 17 0 16 3 19 9
10 7 -11 9 -11 14 1 3 7 1 20 -4 28 -7 12 -9 12 -10 -1 0 -10 -3 -8 -8 5 -5
12 -4 23 3 27 6 4 7 10 4 14 -4 4 2 20 13 35 13 19 16 29 8 29 -7 0 -10 3 -6
6 3 3 11 3 17 -1 8 -5 8 -11 -1 -21 -9 -11 -9 -14 0 -14 7 0 9 -6 5 -12 -4 -7
2 -4 13 7 14 13 16 22 9 27 -7 5 -6 8 3 8 11 0 11 3 1 15 -7 9 -10 18 -6 22 3
3 6 1 6 -5 0 -7 5 -12 11 -12 6 0 9 8 7 18 -2 12 -11 16 -33 14 -22 -2 -26 0
-15 7 8 5 17 8 21 5 4 -2 9 1 11 7 2 6 14 5 33 -5 17 -9 36 -16 43 -16 20 0
14 18 -8 23 -17 4 -16 4 2 3 30 -1 30 -30 0 -34 -19 -3 -21 -6 -11 -18 9 -11
15 -12 26 -3 18 16 22 10 16 -23 -3 -17 -10 -25 -17 -21 -6 3 -8 3 -4 -2 4 -4
3 -14 -3 -21 -7 -9 -2 -14 21 -19 21 -5 30 -11 26 -21 -3 -8 -1 -14 5 -14 6 0
7 -5 3 -12 -4 -7 -3 -8 4 -4 8 4 12 0 12 -11 0 -15 2 -16 10 -3 9 13 11 13 20
0 7 -11 5 -16 -4 -18 -16 -3 -29 -42 -15 -42 5 0 9 5 9 10 0 6 6 10 14 10 8 0
17 10 19 23 4 15 5 13 4 -8 -1 -21 -14 -42 -42 -69 -65 -63 -152 -134 -175
-141 -11 -3 -20 -13 -20 -21 0 -24 66 -45 161 -51 l87 -6 3 -71 c5 -157 4
-189 -7 -193 -6 -2 -17 9 -23 24 -6 15 -20 39 -30 52 l-18 23 -59 -25 c-32
-14 -90 -36 -128 -49 -37 -13 -71 -29 -73 -36 -6 -15 22 -132 44 -181 9 -20
15 -40 14 -44 -1 -5 2 -6 7 -3 5 3 19 -5 30 -17 l21 -23 -19 -63 c-11 -34 -20
-74 -20 -88 l0 -25 -72 7 c-40 4 -77 9 -81 12 -4 3 -8 48 -7 101 4 310 0 390
-17 396 -15 6 -16 -32 -9 -520 l7 -526 -53 6 c-29 4 -69 9 -89 12 -34 5 -60
-8 -41 -20 7 -4 117 -20 217 -32 28 -3 144 -16 258 -30 l208 -24 40 21 c23 11
43 18 45 16 3 -3 -17 -48 -43 -101 l-48 -97 -34 6 c-70 13 -237 73 -289 104
-63 37 -77 39 -68 9 13 -42 11 -52 -9 -56 -45 -8 -49 -11 -31 -30 23 -27 20
-49 -10 -56 -37 -10 -24 -30 26 -38 96 -17 421 -50 435 -44 8 3 53 84 99 179
97 200 87 192 236 202 52 3 126 13 163 21 38 9 70 14 71 12 8 -8 136 -310 136
-319 0 -19 -252 23 -332 55 -61 25 -83 19 -53 -14 21 -23 13 -50 -14 -50 -29
0 -33 -14 -10 -33 26 -22 24 -35 -6 -49 -27 -12 -32 -24 -13 -30 26 -8 425 10
486 22 69 14 81 23 60 48 -12 14 -48 87 -48 95 0 2 78 -7 173 -20 94 -13 242
-32 327 -43 85 -11 163 -22 172 -24 37 -8 38 14 18 270 -36 475 -35 442 -10
469 16 17 21 32 17 52 -4 20 1 34 16 51 18 20 19 24 7 32 -8 5 -29 10 -46 10
l-31 0 -7 103 c-6 95 -14 199 -66 888 -11 146 -20 273 -20 282 0 9 -7 17 -16
17 -13 0 -14 -9 -10 -52 6 -53 15 -168 61 -808 13 -190 27 -362 29 -384 l4
-38 -46 7 c-26 4 -48 8 -50 10 -2 2 -14 176 -27 386 -14 211 -29 452 -34 534
-6 83 -9 157 -8 165 0 8 -3 52 -7 98 -11 106 -32 109 -28 4 l4 -72 -44 0 c-23
1 -193 14 -377 29 -249 21 -335 32 -342 42 -7 12 -11 12 -18 1 -6 -11 -30 -11
-127 -3 -65 6 -231 20 -369 31 -137 11 -299 24 -360 30 -268 23 -275 24 -275
7z m496 -68 c4 -7 -2 -9 -17 -7 -17 2 -23 -1 -21 -12 3 -12 1 -13 -10 -2 -11
11 -10 14 2 22 20 13 37 12 46 -1z m46 -17 c-2 -17 1 -19 19 -15 17 5 20 3 13
-8 -18 -29 -14 -41 12 -35 14 4 24 2 24 -4 0 -5 0 -13 0 -17 0 -5 -5 -8 -11
-8 -7 0 -16 -9 -21 -20 -6 -16 -7 -14 -3 8 6 29 -11 37 -32 16 -8 -8 -11 -4
-10 15 1 14 6 26 11 26 5 0 3 6 -3 14 -17 20 -23 58 -8 53 7 -2 11 -13 9 -25z
m72 9 c-8 -8 -43 -8 -38 0 2 4 13 7 24 6 10 -1 17 -3 14 -6z m86 -12 c0 -5 -7
-9 -15 -9 -9 0 -12 6 -9 15 6 15 24 11 24 -6z m244 -19 c19 -7 26 -6 26 2 0 9
3 9 11 1 16 -16 1 -37 -16 -23 -8 7 -21 7 -39 0 -28 -10 -29 -10 -20 14 7 19
6 19 38 6z m108 -3 c7 6 22 7 33 3 11 -4 26 -5 32 -3 8 3 13 -4 13 -18 0 -13
3 -41 6 -61 7 -43 0 -46 -36 -18 -14 11 -36 20 -50 20 -14 0 -35 7 -47 15 -16
12 -22 12 -26 2 -3 -6 -6 -3 -7 8 l-1 20 -15 -20 -16 -20 4 20 c3 14 11 19 26
18 12 -2 22 2 22 8 0 6 7 9 15 5 8 -3 14 -2 14 2 -1 4 -1 14 0 22 1 13 3 13
10 1 7 -11 13 -12 23 -4z m247 -13 c7 -6 -93 -93 -101 -88 -4 3 -5 -2 -2 -11
4 -11 2 -14 -9 -9 -18 6 -27 35 -27 85 l0 37 68 -5 c37 -3 69 -7 71 -9z m-420
-15 c-8 -16 -8 -24 2 -33 9 -8 10 -8 5 1 -3 6 -1 15 6 19 7 4 10 4 6 -1 -4 -4
-2 -15 5 -23 9 -13 9 -14 0 -8 -7 4 -13 2 -13 -3 0 -6 -6 -11 -14 -11 -10 0
-14 9 -12 28 2 15 4 33 5 40 0 6 6 12 11 12 7 0 7 -7 -1 -21z m-26 -9 c-3 -11
-7 -20 -8 -20 -1 0 -5 9 -8 20 -3 12 0 20 8 20 8 0 11 -8 8 -20z m828 -5 c64
-4 120 -10 125 -13 14 -11 16 -33 2 -31 -7 1 -24 1 -38 0 -20 -1 -22 -3 -10
-11 13 -8 12 -10 -4 -10 -13 0 -17 5 -13 20 3 11 1 18 -4 14 -12 -7 -11 -41 2
-49 11 -7 74 19 84 35 3 6 11 10 17 10 7 0 7 -4 -1 -14 -8 -10 -8 -16 2 -25 8
-6 16 -9 19 -6 2 3 5 -2 5 -10 0 -13 -3 -13 -18 1 -22 19 -69 12 -69 -11 0
-13 -4 -13 -27 2 -16 10 -31 22 -35 27 -4 6 -9 4 -13 -6 -4 -10 -14 -14 -26
-11 -11 3 -19 0 -19 -6 0 -7 4 -10 9 -7 20 13 41 -7 41 -37 0 -24 -3 -28 -12
-19 -19 19 -28 14 -28 -15 0 -25 -1 -26 -14 -8 -13 18 -14 18 -37 -1 -25 -20
-36 -44 -20 -44 5 0 11 6 14 13 2 6 7 9 11 6 3 -3 -2 -15 -12 -27 -17 -19 -19
-19 -30 -4 -9 14 -11 14 -9 2 1 -9 -5 -14 -15 -12 -9 1 -19 -2 -23 -8 -3 -5
-11 -10 -18 -10 -6 0 0 8 13 17 49 35 92 87 97 120 4 22 2 33 -6 33 -8 0 -10
-8 -6 -22 7 -23 7 -23 -9 -3 l-15 20 -1 -20 c-1 -18 -2 -18 -10 3 -5 12 -12
22 -15 22 -4 0 -4 -3 -2 -7 3 -5 1 -17 -3 -28 -10 -27 -49 -26 -76 2 -16 16
-25 18 -33 10 -8 -8 -11 -7 -11 5 0 9 -3 25 -6 35 -4 13 -3 15 4 4 8 -11 13
-10 31 5 20 17 20 19 4 26 -17 6 -17 7 0 7 10 1 17 9 17 22 0 16 5 20 20 16
11 -3 20 -1 20 5 0 5 8 7 18 4 9 -2 69 -7 133 -11z m-871 -16 c0 -5 5 -7 10
-4 6 3 10 1 10 -4 0 -16 -16 -13 -30 4 -9 10 -9 15 -1 15 6 0 11 -5 11 -11z
m1080 -9 c0 -5 -4 -10 -10 -10 -5 0 -10 5 -10 10 0 6 5 10 10 10 6 0 10 -4 10
-10z m-1347 -27 c-4 -11 -3 -14 5 -9 7 4 12 2 12 -3 0 -6 -7 -11 -15 -11 -8 0
-15 9 -15 20 0 11 4 20 10 20 5 0 6 -7 3 -17z m267 -3 c0 -13 -7 -20 -20 -20
-22 0 -23 1 -14 24 9 23 34 20 34 -4z m-75 1 c3 -5 1 -12 -5 -16 -5 -3 -10 1
-10 9 0 18 6 21 15 7z m313 -13 c66 -16 135 -87 151 -154 20 -81 2 -155 -79
-326 -38 -82 -70 -154 -70 -160 0 -6 10 -8 23 -5 147 34 178 38 242 34 170
-13 287 -81 441 -257 135 -154 185 -185 344 -211 l71 -12 -22 -23 c-20 -21
-20 -24 -5 -30 26 -10 19 -31 -24 -61 -21 -15 -40 -37 -42 -48 -5 -31 -122
-87 -303 -146 -254 -82 -317 -101 -321 -97 -2 2 19 21 46 42 114 87 200 278
200 445 0 64 -17 121 -37 121 -12 0 -13 -6 -7 -27 16 -52 8 -203 -15 -279 -24
-80 -99 -194 -152 -233 -186 -136 -244 -152 -576 -155 -123 -1 -223 -1 -223 1
0 6 70 39 174 82 60 25 111 52 114 59 7 23 -92 13 -251 -27 -167 -43 -261 -57
-301 -47 -22 5 -9 15 97 70 193 101 260 140 264 153 3 9 -33 11 -139 10 -109
-1 -162 3 -223 17 -92 22 -94 20 80 68 61 16 147 32 193 35 53 4 81 10 79 17
-2 6 -32 20 -67 32 -63 22 -72 29 -84 70 -6 19 -1 23 36 32 89 22 181 24 307
7 155 -21 303 -17 344 9 33 22 46 68 35 121 -10 45 -52 105 -74 105 -20 0 -18
-4 16 -52 35 -48 40 -104 12 -137 -26 -33 -135 -38 -327 -16 -130 16 -168 17
-237 7 -46 -6 -93 -14 -105 -18 -30 -8 -30 6 2 90 26 70 32 144 14 177 -9 18
0 32 78 112 122 127 145 159 145 204 0 22 -6 41 -16 48 -14 11 -13 17 4 63 26
69 25 88 -6 108 -24 16 -25 21 -19 63 11 74 30 109 62 117 15 3 33 7 38 9 22
7 68 4 113 -7z m869 -10 c-3 -8 -6 -5 -6 6 -1 11 2 17 5 13 3 -3 4 -12 1 -19z
m-1148 -2 c9 -10 8 -15 -3 -19 -10 -4 -14 0 -13 14 2 23 1 23 16 5z m-197 -28
c-7 -7 -12 -8 -12 -2 0 14 12 26 19 19 2 -3 -1 -11 -7 -17z m156 -15 c-14 -13
-16 -13 -21 1 -4 10 -1 16 8 16 8 0 15 6 16 13 0 9 2 8 6 -1 3 -8 -1 -21 -9
-29z m1095 11 c3 -18 1 -22 -6 -15 -13 13 -18 41 -7 41 4 0 10 -12 13 -26z
m-83 1 c0 -12 -19 -12 -23 0 -4 9 -1 12 9 8 7 -3 14 -7 14 -8z m164 -6 c-3 -5
-10 -7 -15 -3 -5 3 -7 10 -3 15 3 5 10 7 15 3 5 -3 7 -10 3 -15z m-1096 -51
c-13 -62 -2 -108 27 -108 16 0 19 -22 6 -54 -13 -33 -167 -78 -288 -83 -58 -3
-103 -1 -103 4 0 5 30 34 68 66 37 31 98 84 136 117 69 60 156 123 163 117 1
-2 -3 -29 -9 -59z m1047 52 c3 -5 1 -10 -4 -10 -6 0 -11 5 -11 10 0 6 2 10 4
10 3 0 8 -4 11 -10z m-1176 -24 c9 -11 9 -16 0 -22 -8 -4 -9 -3 -5 4 4 7 2 12
-3 12 -6 0 -11 5 -11 10 0 14 5 13 19 -4z m910 -29 c0 -9 -2 -8 -6 1 -2 6 -10
9 -15 6 -7 -4 -8 -2 -4 5 9 13 26 5 25 -12z m-69 -38 c0 -4 -7 -10 -16 -13
-14 -5 -15 -4 -4 9 7 8 8 15 3 15 -5 0 -10 7 -10 16 0 14 2 14 14 -2 7 -10 13
-21 13 -25z m204 26 c-4 -8 -11 -12 -16 -9 -6 4 -5 10 3 15 19 12 19 11 13 -6z
m-324 -15 c0 -5 -2 -10 -4 -10 -3 0 -8 5 -11 10 -3 6 -1 10 4 10 6 0 11 -4 11
-10z m-43 -52 c-3 -8 -6 -5 -6 6 -1 11 2 17 5 13 3 -3 4 -12 1 -19z m263 -22
c0 -3 -4 -8 -10 -11 -5 -3 -10 -1 -10 4 0 6 5 11 10 11 6 0 10 -2 10 -4z
m-143 -37 c-15 -9 -16 -13 -5 -27 10 -12 10 -14 1 -8 -9 5 -13 1 -14 -11 0
-16 -1 -16 -9 2 -12 28 -12 47 0 40 6 -3 10 -1 10 4 0 6 8 11 18 11 16 -1 16
-1 -1 -11z m-1190 -21 c-3 -8 -6 -5 -6 6 -1 11 2 17 5 13 3 -3 4 -12 1 -19z
m1123 -125 c0 -76 3 -156 7 -177 l6 -39 -29 9 c-16 5 -66 9 -111 9 l-82 0 -7
84 c-6 72 -3 95 15 151 11 37 21 74 21 83 0 15 12 17 90 17 l90 0 0 -137z
m-1090 87 c0 -5 -4 -10 -10 -10 -5 0 -10 5 -10 10 0 6 5 10 10 10 6 0 10 -4
10 -10z m480 -40 c-8 -6 -26 -9 -40 -9 -22 0 -21 2 10 13 37 14 54 11 30 -4z
m37 -70 c2 -26 0 -31 -7 -20 -8 12 -10 12 -10 1 0 -8 -8 -20 -17 -27 -17 -13
-17 -14 2 -8 19 5 19 5 3 -9 -10 -8 -18 -18 -18 -22 0 -4 -23 -31 -52 -61 -37
-38 -54 -50 -60 -41 -14 21 -8 204 7 204 7 0 10 -8 7 -19 -2 -10 1 -24 7 -31
6 -8 9 -17 6 -21 -3 -3 0 -2 6 3 8 6 8 15 -1 31 -10 19 -9 22 9 27 11 3 18 10
14 16 -4 6 0 8 10 4 9 -3 19 -2 23 4 3 6 20 9 37 7 28 -3 32 -7 34 -38z m325
-88 c-7 -2 -12 -8 -12 -13 0 -6 4 -8 8 -5 5 3 9 -8 9 -24 0 -27 -8 -35 -30
-31 -5 1 -5 -4 -1 -10 7 -12 -12 -29 -34 -29 -15 0 2 37 27 58 9 8 10 11 3 7
-8 -4 -7 5 4 29 10 19 22 32 28 29 6 -4 6 -8 -2 -11z m-583 -132 c12 -22 21
-44 19 -49 -2 -5 -25 -32 -51 -60 l-48 -51 -40 20 c-22 12 -58 37 -80 57 l-40
36 33 14 c18 8 60 23 93 34 33 12 64 25 70 30 15 15 20 11 44 -31z m1380 -32
c-1 -13 2 -79 6 -148 7 -108 5 -130 -9 -158 -9 -18 -20 -32 -24 -32 -12 0 -78
62 -122 114 -43 51 -42 71 3 78 16 2 21 9 19 23 -2 11 -1 17 3 13 9 -9 51 34
47 49 -2 8 3 10 12 7 11 -4 13 0 9 17 -5 18 -3 21 10 16 13 -5 17 -1 17 14 0
11 5 17 10 14 6 -3 10 -1 10 4 0 6 2 11 5 11 3 0 4 -10 4 -22z m-1324 -138
l-6 -28 -50 16 -49 16 42 43 43 44 13 -32 c7 -17 10 -44 7 -59z m-96 -199 c11
-7 6 -13 -24 -25 -45 -19 -41 -26 32 -65 72 -39 68 -54 -19 -74 -40 -10 -84
-20 -97 -24 l-24 -6 5 84 c3 46 12 101 21 122 l16 38 38 -20 c21 -11 44 -25
52 -30z m43 24 c-4 -25 -5 -25 -24 -8 -18 16 -18 18 -1 24 29 12 31 10 25 -16z
m-12 -75 c0 -5 -4 -10 -10 -10 -5 0 -10 5 -10 10 0 6 5 10 10 10 6 0 10 -4 10
-10z m-242 -86 c50 -7 52 -8 52 -38 0 -28 -4 -32 -47 -46 -26 -8 -48 -20 -50
-26 -2 -6 23 -19 57 -28 50 -14 63 -23 76 -49 9 -18 32 -48 51 -69 l35 -36
-63 -30 c-36 -16 -75 -32 -87 -36 -31 -10 -23 -28 19 -43 42 -15 106 -16 182
-3 49 8 62 6 87 -9 l30 -18 -25 -11 c-34 -16 -31 -32 5 -32 29 0 30 -2 30 -46
0 -43 -2 -46 -22 -41 -13 3 -113 16 -224 28 l-201 23 -6 180 c-4 98 -7 214 -7
258 l0 78 28 0 c15 0 51 -3 80 -6z m1816 -409 c9 -137 19 -278 23 -311 l5 -61
-52 8 c-29 4 -54 10 -56 11 -2 2 -11 129 -20 283 -13 206 -15 280 -6 283 6 2
26 14 44 26 18 13 36 20 39 17 3 -3 13 -118 23 -256z m-1528 230 l92 0 -91
-48 -90 -47 -30 27 c-16 16 -35 40 -43 56 l-15 27 43 -7 c24 -5 84 -8 134 -8z
m1387 -107 c11 -110 30 -468 26 -472 -6 -5 -547 69 -554 76 -3 3 -7 70 -8 148
l-2 143 30 9 c17 5 86 24 155 43 69 18 170 51 225 73 55 22 105 40 111 41 7 1
14 -25 17 -61z m-1226 -83 c-58 -25 -84 -32 -100 -25 -26 9 -24 11 78 39 103
29 110 25 22 -14z m657 -87 c3 -29 5 -73 5 -98 l-1 -45 -28 60 c-50 105 -52
115 -27 125 39 15 44 11 51 -42z m-604 -25 c-1 -18 -18 -31 -64 -52 -27 -11
-50 -21 -52 -21 -2 0 -4 18 -4 40 l0 40 60 0 c33 0 60 -3 60 -7z"/>
<path d="M1102 2855 c-21 -11 -21 -12 -4 -28 10 -10 23 -17 28 -17 5 0 2 5 -6
11 -11 8 -12 12 -2 16 6 2 9 9 6 15 -5 7 2 9 20 4 14 -3 26 -3 26 2 0 12 -43
11 -68 -3z"/>
<path d="M1143 2825 c0 -7 6 -11 14 -8 7 3 13 6 13 8 0 2 -6 5 -13 8 -8 3 -14
-1 -14 -8z"/>
<path d="M1705 2770 c3 -5 10 -10 16 -10 5 0 9 5 9 10 0 6 -7 10 -16 10 -8 0
-12 -4 -9 -10z"/>
<path d="M1676 2761 c-3 -5 1 -11 9 -14 9 -4 12 -1 8 9 -6 16 -10 17 -17 5z"/>
<path d="M1577 2734 c-4 -4 -7 -14 -7 -23 0 -14 2 -14 10 -1 8 12 10 12 11 -5
0 -11 3 -15 5 -8 7 15 -10 46 -19 37z"/>
<path d="M1690 2710 c0 -13 5 -18 15 -14 8 4 15 10 15 14 0 4 -7 10 -15 14
-10 4 -15 -1 -15 -14z"/>
<path d="M999 2699 c-11 -11 -19 -30 -17 -42 4 -29 22 -28 26 1 4 27 32 44 53
31 11 -8 9 -13 -13 -30 -29 -21 -36 -43 -18 -54 19 -12 48 5 60 35 26 62 -43
107 -91 59z"/>
<path d="M776 2645 c-11 -8 -16 -20 -12 -30 5 -15 8 -14 31 2 26 19 33 43 13
43 -7 0 -21 -7 -32 -15z"/>
<path d="M795 2290 c3 -5 8 -10 11 -10 2 0 4 5 4 10 0 6 -5 10 -11 10 -5 0 -7
-4 -4 -10z"/>
<path d="M1843 1942 c-7 -4 -9 -13 -5 -19 6 -9 11 -6 20 7 13 21 6 26 -15 12z"/>
<path d="M490 2770 c-12 -8 -12 -10 3 -16 10 -4 24 -1 30 5 9 9 8 11 -7 5 -13
-5 -17 -4 -12 4 9 14 6 15 -14 2z"/>
<path d="M422 2747 c-7 -8 -6 -18 4 -31 7 -10 12 -22 9 -25 -2 -4 5 -12 16
-19 10 -7 19 -8 19 -3 0 5 -6 12 -12 14 -7 3 -3 6 8 6 33 1 23 50 -10 51 -4 0
-6 -10 -3 -22 6 -22 6 -22 -8 -4 -11 14 -12 22 -4 27 7 4 8 9 1 13 -5 3 -14 0
-20 -7z"/>
<path d="M550 2740 c0 -5 5 -10 10 -10 6 0 10 5 10 10 0 6 -4 10 -10 10 -5 0
-10 -4 -10 -10z"/>
<path d="M413 2614 c0 -9 6 -13 14 -9 8 3 17 5 19 5 14 0 1 16 -14 17 -10 1
-19 -5 -19 -13z"/>
<path d="M386 2485 c4 -8 13 -15 21 -15 12 0 12 2 -1 15 -8 8 -17 15 -20 15
-3 0 -3 -7 0 -15z"/>
<path d="M670 2281 c0 -7 -4 -10 -9 -6 -5 3 -12 1 -15 -4 -4 -5 -2 -12 3 -15
11 -7 36 22 27 31 -3 3 -6 1 -6 -6z"/>
<path d="M237 2227 c-7 -20 2 -30 56 -59 57 -32 63 -17 16 37 -32 36 -63 45
-72 22z"/>
<path d="M122 2139 c-35 -13 -25 -45 13 -42 47 3 95 15 95 23 0 9 -55 30 -74
29 -6 0 -21 -4 -34 -10z"/>
<path d="M977 608 c-17 -13 -217 -558 -217 -592 0 -29 22 -5 49 53 20 42 28
50 60 55 46 7 319 8 347 0 13 -3 30 -25 45 -55 27 -58 49 -82 49 -53 0 34
-200 579 -217 592 -9 6 -35 12 -58 12 -23 0 -49 -6 -58 -12z m157 -200 c21
-30 50 -118 41 -126 -9 -10 -272 -9 -281 1 -10 9 23 105 44 130 12 14 31 17
98 17 74 0 84 -2 98 -22z"/>
<path d="M1343 609 c-19 -19 -19 -603 0 -597 8 3 13 32 15 88 2 46 8 90 14 97
7 9 42 13 120 13 166 0 201 -22 211 -134 10 -98 29 -91 35 12 4 64 -1 86 -39
179 -12 28 -11 37 3 60 61 104 31 210 -76 265 -33 17 -64 22 -156 26 -85 3
-118 1 -127 -9z m337 -159 c24 -24 25 -43 4 -64 -23 -24 -48 -27 -189 -24
l-130 3 -3 53 -3 52 150 0 c138 0 153 -2 171 -20z"/>
<path d="M7 603 c-4 -3 -7 -138 -7 -300 0 -254 2 -293 15 -293 8 0 16 1 17 3
0 1 4 94 7 207 l6 205 56 3 c37 2 59 -1 66 -10 5 -7 35 -98 67 -203 32 -104
62 -196 68 -202 6 -8 34 -13 69 -13 50 0 61 3 73 23 8 12 40 105 70 206 31
102 62 189 69 193 16 10 98 10 114 0 9 -6 13 -64 15 -210 2 -126 7 -202 13
-202 6 0 10 106 10 298 l0 297 -67 3 c-56 2 -68 0 -76 -15 -5 -10 -35 -103
-67 -208 -31 -104 -62 -193 -69 -197 -19 -13 -151 -9 -168 5 -9 6 -42 96 -74
202 -31 105 -61 196 -67 203 -10 13 -128 18 -140 5z"/>
<path d="M1885 591 c-96 -44 -125 -110 -125 -284 0 -145 12 -189 65 -242 80
-80 218 -88 313 -18 54 40 94 143 71 185 -11 20 -12 19 -42 -10 -44 -41 -62
-49 -133 -57 -91 -10 -173 8 -206 45 -24 26 -28 38 -28 94 0 55 4 69 26 95 30
36 77 51 159 51 86 -1 133 -14 169 -49 37 -36 52 -39 59 -12 17 65 -44 169
-117 202 -55 25 -157 25 -211 0z"/>
<path d="M2255 598 c-3 -7 -4 -144 -3 -303 l3 -290 25 0 25 0 0 300 0 300 -23
3 c-12 2 -24 -3 -27 -10z"/>
</g>
</svg>
